<svg xmlns="http://www.w3.org/2000/svg" width="24" height="24" viewBox="0 0 24 24">
  <g id="assignment_active_icon" transform="translate(-2024 1731)">
    <g id="Layer_2" data-name="Layer 2" transform="translate(2026 -1731)">
      <g id="Layer_1" data-name="Layer 1">
        <path id="Path_269" data-name="Path 269" d="M15,0H5A5,5,0,0,0,0,5V20a4,4,0,0,0,4,4H15a5,5,0,0,0,5-5V5A5,5,0,0,0,15,0ZM2,5A3,3,0,0,1,4,2.17V16a3.87,3.87,0,0,0-2,.54ZM18,19a3,3,0,0,1-3,3H4a2,2,0,0,1,0-4H18Zm0-3H6V2h9a3,3,0,0,1,3,3Z" fill="#212121"/>
        <path id="Path_270" data-name="Path 270" d="M18,18v1a3,3,0,0,1-3,3H4a2,2,0,0,1,0-4Z" fill="#8E7A7A"/>
        <path id="Path_271" data-name="Path 271" d="M4,2.17V16a3.87,3.87,0,0,0-2,.54V5A3,3,0,0,1,4,2.17Z" fill="#8E7A7A"/>
        <path id="Path_272" data-name="Path 272" d="M18,5V16H6V2h9A3,3,0,0,1,18,5Z" fill="#8E7A7A"/>
      </g>
    </g>
    <rect id="Rectangle_33" data-name="Rectangle 33" width="24" height="24" transform="translate(2024 -1731)" fill="none"/>
  </g>
</svg>
