<svg xmlns="http://www.w3.org/2000/svg" width="24" height="24" viewBox="0 0 24 24">
  <g id="attached_icon" transform="translate(-35.5 -752.5)">
    <rect id="Rectangle_1261" data-name="Rectangle 1261" width="24" height="24" transform="translate(35.5 752.5)" fill="none"/>
    <path id="Icon_ionic-md-attach" data-name="Icon ionic-md-attach" d="M20.607,7.393V19.964a4.571,4.571,0,1,1-9.143,0V6.821a2.857,2.857,0,1,1,5.714,0V19.964a1.143,1.143,0,0,1-2.286,0V9.107H13.179V19.964a2.857,2.857,0,0,0,5.714,0V6.821a4.571,4.571,0,1,0-9.143,0V19.964a6.286,6.286,0,0,0,12.571,0V7.393Z" transform="translate(31.465 750.25)" fill="#fff"/>
  </g>
</svg>
