<svg xmlns="http://www.w3.org/2000/svg" width="30.172" height="30.172" viewBox="0 0 30.172 30.172">
  <g id="attendance_icon" transform="translate(-716.611 -1055.7)">
    <path id="Path_35" data-name="Path 35" d="M777.1,1058.041v2.87a1.5,1.5,0,0,1-1.5,1.5h0V1058.8Z" transform="translate(-51.556 -2.037)" fill="#38a3a5"/>
    <path id="Path_36" data-name="Path 36" d="M923.9,1058.041v2.87a1.5,1.5,0,0,0,1.5,1.5h0V1058.8Z" transform="translate(-181.244 -2.037)" fill="#38a3a5"/>
    <path id="Path_37" data-name="Path 37" d="M733.457,1179.772v8.125a1.517,1.517,0,0,1-1.517,1.517h-8.832l-.332-1.065a10.279,10.279,0,0,1-.421-4.014l.1-1.113a2.63,2.63,0,0,1,.465-1.265l0,0a11.7,11.7,0,0,1,3.373-3.2h0a1.525,1.525,0,0,1,.4-.178l.025-.007a12.576,12.576,0,0,1,4.759-.37l.622.07a1.528,1.528,0,0,1,.251.05h0A1.516,1.516,0,0,1,733.457,1179.772Z" transform="translate(-4.96 -107.401)" fill="#38a3a5"/>
    <g id="Group_9" data-name="Group 9" transform="translate(716.611 1055.7)">
      <path id="Path_38" data-name="Path 38" d="M723.42,1058.621c0-.48,0-.925,0-1.37a1.465,1.465,0,0,1,1.529-1.535c.284,0,.569,0,.853,0a1.459,1.459,0,0,1,1.483,1.488c.007.464,0,.929,0,1.412h13.679c0-.317,0-.637,0-.957a4.583,4.583,0,0,1,.033-.727,1.387,1.387,0,0,1,1.27-1.2,5.989,5.989,0,0,1,1.276,0,1.43,1.43,0,0,1,1.285,1.485c.006.455,0,.911,0,1.4.125.006.232.014.339.015a1.475,1.475,0,0,1,1.61,1.607q0,6.329,0,12.659,0,3.226,0,6.451a1.486,1.486,0,0,1-1.659,1.651q-6.595,0-13.189-.007a.466.466,0,0,0-.5.318,7.614,7.614,0,0,1-6.064,4.482,7.757,7.757,0,0,1-4.225-14.75.478.478,0,0,0,.326-.52c-.01-3.388.014-6.776-.017-10.164a1.552,1.552,0,0,1,1.715-1.728A1.9,1.9,0,0,0,723.42,1058.621Zm22.344,16.45.056-.023v-9.636H725.39v-.947H745.84v-.434c0-1.319,0-2.638,0-3.956a.458.458,0,0,0-.416-.484,3.976,3.976,0,0,0-.587-.005c0,.5.006.969,0,1.434a1.39,1.39,0,0,1-1.222,1.439,5.856,5.856,0,0,1-1.542-.026,1.267,1.267,0,0,1-1.029-.968,2.247,2.247,0,0,1-.069-.6c-.01-.421,0-.843,0-1.266h-13.68c0,.493.009.967,0,1.442a1.457,1.457,0,0,1-1.451,1.459c-.264.008-.528,0-.792,0a1.479,1.479,0,0,1-1.622-1.626c0-.423,0-.845,0-1.261-.67-.1-1.023-.053-1.017.82.024,3.256.01,6.513.01,9.769v.363l1.521-.243c-.547-.133-.518-.5-.516-.864.006-.8,0-1.6,0-2.4,0-.455.17-.624.625-.625q1.31,0,2.62,0c.452,0,.62.171.621.629q0,1.263,0,2.526c0,.561-.144.707-.7.708h-1.646a7.89,7.89,0,0,1,6.908,5.714l-.856.239a6.859,6.859,0,0,0-13.447,2.25,6.825,6.825,0,0,0,5.731,6.354,6.553,6.553,0,0,0,4.487-.818,6.847,6.847,0,0,0,3.409-5l.9.127-.147.876a1.072,1.072,0,0,0,.143.022c.9,0,1.807.007,2.711,0a.614.614,0,0,0,.344-.151q2.825-2.34,5.636-4.7a.642.642,0,0,0,.2-.43c.018-.953.008-1.907.01-2.861,0-.452.171-.619.63-.619q1.462,0,2.924,0c.1,0,.2.009.3.015v.935h-2.908v2.012l1.492-1.242c.448-.374.645-.349.987.127Q745.077,1074.107,745.764,1075.07Zm-1.977-1.158-7.3,6.077a2.366,2.366,0,0,0,1.26-.055c2.337-1.05,4.681-2.083,7.022-3.122.265-.118.528-.241.822-.375Zm-17.442-14.794c0-.629,0-1.258,0-1.886,0-.393-.184-.57-.581-.575-.284,0-.569,0-.853,0a.494.494,0,0,0-.543.552q-.007,1.9,0,3.8a.493.493,0,0,0,.552.541c.284.005.569,0,.853,0,.392-.005.571-.185.573-.582C726.347,1060.356,726.344,1059.737,726.344,1059.119Zm15.567-.011h0c0,.639,0,1.278,0,1.917a.488.488,0,0,0,.53.532q.457.011.914,0a.487.487,0,0,0,.533-.529q.008-1.917,0-3.834a.487.487,0,0,0-.527-.535c-.284-.007-.569,0-.853,0-.417,0-.594.178-.6.592C741.909,1057.87,741.912,1058.489,741.912,1059.107Zm3.924,18.252-5.922,2.627.016.075h2.175c1.054,0,2.109,0,3.163,0,.326,0,.555-.157.562-.431C745.847,1078.892,745.836,1078.155,745.836,1077.36Zm-21.458-8.031h1.942v-1.94h-1.942Z" transform="translate(-716.612 -1055.7)" fill="#22577a"/>
      <path id="Path_39" data-name="Path 39" d="M736,1204.1a2.279,2.279,0,0,1,.246-.39q2.34-2.351,4.689-4.693c.416-.416.6-.414,1.011,0s.827.825,1.238,1.241c.325.33.326.549,0,.878q-3.406,3.409-6.816,6.814c-.326.325-.544.32-.877-.012q-1.641-1.634-3.278-3.271c-.358-.358-.359-.568-.007-.923q.639-.644,1.284-1.283c.331-.328.552-.331.879-.006C734.874,1202.961,735.378,1203.474,736,1204.1Zm-2.793.074,2.715,2.713,6.225-6.218-.768-.833a2.8,2.8,0,0,1-.25.34q-2.275,2.282-4.555,4.558c-.6.6-.685.6-1.276.006-.447-.448-.891-.9-1.336-1.348Z" transform="translate(-729.952 -1181.024)" fill="#22577a"/>
      <path id="Path_40" data-name="Path 40" d="M818.935,1140.771c.458,0,.917,0,1.376,0a.513.513,0,0,1,.578.579q.008,1.407,0,2.813a.512.512,0,0,1-.579.578q-1.407.008-2.814,0a.512.512,0,0,1-.578-.579q-.008-1.406,0-2.813a.513.513,0,0,1,.579-.578C817.976,1140.766,818.456,1140.771,818.935,1140.771Zm-1.029.984v1.995h2v-1.995Z" transform="translate(-804.31 -1130.089)" fill="#22577a"/>
      <path id="Path_41" data-name="Path 41" d="M867.245,1142.786c0,.458.005.917,0,1.375a.514.514,0,0,1-.579.579q-1.407.008-2.814,0a.512.512,0,0,1-.579-.578q-.008-1.407,0-2.813a.512.512,0,0,1,.578-.578q1.407-.008,2.814,0a.514.514,0,0,1,.579.578C867.25,1141.827,867.245,1142.306,867.245,1142.786Zm-.987-1.026h-2v1.99h2Z" transform="translate(-844.841 -1130.086)" fill="#22577a"/>
      <path id="Path_42" data-name="Path 42" d="M911.613,1140.771c.469,0,.938,0,1.407,0a.514.514,0,0,1,.579.578q.008,1.407,0,2.813a.513.513,0,0,1-.579.578q-1.407.008-2.814,0a.512.512,0,0,1-.578-.578q-.008-1.407,0-2.813a.513.513,0,0,1,.578-.578C910.675,1140.766,911.144,1140.771,911.613,1140.771Zm-1,2.984h2v-2h-2Z" transform="translate(-885.433 -1130.089)" fill="#22577a"/>
      <path id="Path_43" data-name="Path 43" d="M865.241,1183.364c-.459,0-.917,0-1.376,0a.52.52,0,0,1-.591-.6q-.006-1.391,0-2.782c0-.4.189-.589.6-.591q1.392-.006,2.783,0c.4,0,.59.189.591.6q.006,1.391,0,2.782c0,.4-.19.587-.6.591C866.179,1183.367,865.71,1183.364,865.241,1183.364Zm1.017-.984v-1.995h-2v1.995Z" transform="translate(-844.842 -1163.859)" fill="#22577a"/>
      <path id="Path_44" data-name="Path 44" d="M823.446,1180.368h-2.493v-.939a.816.816,0,0,1,.162-.031c.906,0,1.812-.005,2.718,0,.36,0,.566.183.568.522.009,1.134,0,2.268,0,3.426h-.958Z" transform="translate(-807.834 -1163.863)" fill="#22577a"/>
      <path id="Path_45" data-name="Path 45" d="M770.736,1125.452h.927v.927h-.927Z" transform="translate(-763.913 -1116.665)" fill="#22577a"/>
      <path id="Path_46" data-name="Path 46" d="M832.079,1225.457l.93-.131.086,1.005h-.959Z" transform="translate(-817.524 -1203.959)" fill="#22577a"/>
    </g>
    <path id="Path_48" data-name="Path 48" d="M874.145,1206.4l7.5-6.25,2.01,2.733-7.719,3.338a2.776,2.776,0,0,1-1.793.179Z" transform="translate(-137.944 -126.367)" fill="#38a3a5"/>
  </g>
</svg>
