<svg xmlns="http://www.w3.org/2000/svg" width="24" height="24" viewBox="0 0 24 24">
  <g id="blood_icon" transform="translate(-6915 -3733)">
    <rect id="Rectangle_17458" data-name="Rectangle 17458" width="24" height="24" transform="translate(6915 3733)" fill="none"/>
    <g id="Group_7346" data-name="Group 7346" transform="translate(6188.061 3611.01)">
      <path id="Path_3493" data-name="Path 3493" d="M738.92,145.99a8.162,8.162,0,0,1-4.5-1.326,8.314,8.314,0,0,1-3.563-4.783,8,8,0,0,1-.319-2.364,8.156,8.156,0,0,1,.6-2.715,35.543,35.543,0,0,1,2.917-5.792c1.263-2.106,2.68-4.227,4.331-6.484.026-.036.054-.08.083-.126l.049-.078.13-.2a.368.368,0,0,1,.258-.131.374.374,0,0,1,.294.131l.132.18c.958,1.312,1.867,2.618,2.7,3.881a57.542,57.542,0,0,1,3.652,6.21,19.767,19.767,0,0,1,1.43,3.6,7.193,7.193,0,0,1-.2,4.221,8.424,8.424,0,0,1-7.555,5.769C739.217,145.986,739.067,145.99,738.92,145.99Zm.018-21.489a76.673,76.673,0,0,0-4.6,7.239,24.224,24.224,0,0,0-1.91,4.227,5.388,5.388,0,0,0-.262,2.31,6.7,6.7,0,0,0,2.233,4.362,6.55,6.55,0,0,0,4.437,1.753h0a7.574,7.574,0,0,0,1.433-.142,6.812,6.812,0,0,0,5.479-6.735,4.975,4.975,0,0,0-.16-1.038,20,20,0,0,0-1.895-4.45A75.162,75.162,0,0,0,738.937,124.5Z" fill="#fff"/>
      <path id="Path_3494" data-name="Path 3494" d="M812.769,360.532c-.2,0-.428-.006-.7-.006h-2.587a.724.724,0,0,1-.559-.177.743.743,0,0,1-.17-.558q0-.216,0-.432c0-.511,0-1.038,0-1.56l-.552,0h-.717c-.281,0-.5,0-.7,0h-.025a.66.66,0,0,1-.721-.732c.011-1.092.011-2.19,0-3.266a.742.742,0,0,1,.187-.541.714.714,0,0,1,.531-.191h.027c.271,0,.567.007.93.007h1.034q0-.375,0-.749,0-.619,0-1.237a.633.633,0,0,1,.745-.743h3.253a.741.741,0,0,1,.571.165.725.725,0,0,1,.175.573q0,.246,0,.491c0,.492,0,1,0,1.5.232,0,.452,0,.627,0h.729c.26,0,.459,0,.648,0h.017a.691.691,0,0,1,.5.184.708.708,0,0,1,.181.515c-.009,1.217-.008,2.3,0,3.313a.722.722,0,0,1-.186.527.711.711,0,0,1-.528.189h-.021c-.193,0-.4,0-.668,0h-.711c-.166,0-.374,0-.594,0,0,.307,0,.615,0,.914,0,.356,0,.724,0,1.084a.742.742,0,0,1-.187.543.7.7,0,0,1-.517.191Zm-3.113-4.347a.714.714,0,0,1,.522.192.738.738,0,0,1,.186.54c-.006.42-.005.848,0,1.262,0,.242,0,.49,0,.738.25,0,.5,0,.756,0s.508,0,.764,0c0-.2,0-.4,0-.594q0-.156,0-.311v-.323q0-.377,0-.754a.752.752,0,0,1,.165-.569.724.724,0,0,1,.572-.176h1.159l.835,0c-.005-.522-.005-1.033,0-1.525h-1.151c-.236,0-.547,0-.857.005h-.021a.714.714,0,0,1-.522-.191.733.733,0,0,1-.185-.537c.005-.362,0-.732,0-1.09,0-.291,0-.589,0-.887-.24,0-.489.005-.742.005s-.509,0-.781-.005c0,.314,0,.629,0,.935,0,.351,0,.714,0,1.069a.7.7,0,0,1-.18.515.7.7,0,0,1-.508.186h-.016c-.185,0-.381,0-.635,0h-.734c-.177,0-.4,0-.635,0,0,.368,0,.739,0,1.1q0,.213,0,.427h1.031c.369,0,.671,0,.95-.006Zm3.634-3.1" transform="translate(-72.187 -218.323)" fill="#fff"/>
    </g>
  </g>
</svg>
