<svg xmlns="http://www.w3.org/2000/svg" width="24" height="24" viewBox="0 0 24 24">
  <g id="camera_icon" transform="translate(-2355 1753)">
    <g id="camera" transform="translate(2355 -1753)">
      <path id="Path_335" data-name="Path 335" d="M18.738,4.012,16.245.779A2,2,0,0,0,14.661,0H9.339A2,2,0,0,0,7.756.779L5.262,4.012A5.5,5.5,0,0,0,0,9.5v9A5.506,5.506,0,0,0,5.5,24h13A5.506,5.506,0,0,0,24,18.5v-9A5.5,5.5,0,0,0,18.738,4.012ZM21,18.5A2.5,2.5,0,0,1,18.5,21H5.5A2.5,2.5,0,0,1,3,18.5v-9A2.5,2.5,0,0,1,5.5,7h13A2.5,2.5,0,0,1,21,9.5Z" fill="#fff"/>
      <path id="Path_336" data-name="Path 336" d="M12,8.5A5.5,5.5,0,1,0,17.5,14,5.5,5.5,0,0,0,12,8.5Zm0,8A2.5,2.5,0,1,1,14.5,14,2.5,2.5,0,0,1,12,16.5Z" fill="#fff"/>
    </g>
    <rect id="Rectangle_17394" data-name="Rectangle 17394" width="24" height="24" transform="translate(2355 -1753)" fill="none"/>
  </g>
</svg>
