<svg xmlns="http://www.w3.org/2000/svg" width="24" height="24" viewBox="0 0 24 24">
  <g id="chat_icon" transform="translate(-2008 1770)">
    <g id="Layer_2" data-name="Layer 2" transform="translate(2008 -1769.998)">
      <g id="Layer_1" data-name="Layer 1">
        <path id="Path_249" data-name="Path 249" d="M20,0H4A4,4,0,0,0,0,4V16a4,4,0,0,0,4,4H6.9l4.45,3.76a1,1,0,0,0,1.29,0L17.1,20H20a4,4,0,0,0,4-4V4A4,4,0,0,0,20,0Zm2,16a2,2,0,0,1-2,2H17.1a2,2,0,0,0-1.29.47L12,21.69,8.19,18.47h0A2,2,0,0,0,6.9,18H4a2,2,0,0,1-2-2V4A2,2,0,0,1,4,2H20a2,2,0,0,1,2,2Z" fill="#212121"/>
        <path id="Path_250" data-name="Path 250" d="M7,7h5a1,1,0,0,0,0-2H7A1,1,0,0,0,7,7Z" fill="#212121"/>
        <path id="Path_251" data-name="Path 251" d="M17,9H7a1,1,0,0,0,0,2H17a1,1,0,0,0,0-2Z" fill="#212121"/>
        <path id="Path_252" data-name="Path 252" d="M17,13H7a1,1,0,0,0,0,2H17a1,1,0,0,0,0-2Z" fill="#212121"/>
      </g>
    </g>
    <rect id="Rectangle_32" data-name="Rectangle 32" width="24" height="24" transform="translate(2008 -1770)" fill="none"/>
  </g>
</svg>
