<svg xmlns="http://www.w3.org/2000/svg" width="33.097" height="30.073" viewBox="0 0 33.097 30.073">
  <g id="computer_icon" transform="translate(-489.92 -162.033)">
    <path id="Path_209" data-name="Path 209" d="M523.017,184.248c-.038.11-.079.219-.114.33a2.393,2.393,0,0,1-2.11,1.689c-.183.015-.366.021-.549.021h-9.357a2.424,2.424,0,0,0,2.014,2.872,5.785,5.785,0,0,0,.677.035c1.358,0,2.714-.007,4.072,0a2.411,2.411,0,0,1,2.437,2.1c.089.579-.1.8-.687.8H493.547c-.605,0-.792-.225-.694-.824a2.411,2.411,0,0,1,2.454-2.082c1.4-.009,2.8,0,4.2,0a2.392,2.392,0,0,0,2.448-1.634,8.546,8.546,0,0,0,.2-1.272h-9.549a2.742,2.742,0,0,1-1.376-.281,2.422,2.422,0,0,1-1.312-2.279q0-9.131,0-18.26a9.062,9.062,0,0,1,.062-1.481,2.349,2.349,0,0,1,2.174-1.928c.171-.012.344-.011.516-.011,9.114,0,18.228.014,27.342-.015,1.445,0,2.551.43,3,2.047Zm-.969-2.828v-.339q0-8.223,0-16.448a1.464,1.464,0,0,0-1.623-1.614H492.5a1.462,1.462,0,0,0-1.613,1.624q0,8.207,0,16.415v.362Zm-31.153,1c0,.546-.025,1.052.007,1.555a1.281,1.281,0,0,0,.8,1.165,2.611,2.611,0,0,0,.971.168q13.8.013,27.6.007a4.5,4.5,0,0,0,.452-.018,1.379,1.379,0,0,0,1.293-1.2,15.5,15.5,0,0,0,.012-1.681ZM502.05,189.2h2.77c.237,0,.475-.008.711.009a.433.433,0,0,1,.441.462.439.439,0,0,1-.421.481,2.774,2.774,0,0,1-.387.017h-9.629a3.766,3.766,0,0,0-.548.028,1.24,1.24,0,0,0-1.037.916H519a.338.338,0,0,0,0-.086.627.627,0,0,0-.054-.117,1.511,1.511,0,0,0-1.438-.746q-4.879.01-9.758,0a2.2,2.2,0,0,1-.418-.027.435.435,0,0,1-.371-.46c-.007-.3.2-.478.56-.48.981,0,1.96,0,2.941,0h.423a3.639,3.639,0,0,1-1.025-2.881h-6.791A3.616,3.616,0,0,1,502.05,189.2Z" fill="#fff"/>
  </g>
</svg>
