<svg xmlns="http://www.w3.org/2000/svg" width="24" height="24" viewBox="0 0 24 24">
  <g id="document_icon" transform="translate(-2321 1753)">
    <path id="form" d="M16,.3a4.968,4.968,0,0,1,1.879,1.164l1.656,1.658A4.954,4.954,0,0,1,20.7,5H16ZM14,12H10a1,1,0,0,0,0,2h4a1,1,0,0,0,0-2Zm2-5a2,2,0,0,1-2-2V0H8A5.006,5.006,0,0,0,3,5V19a5.006,5.006,0,0,0,5,5h8a5.006,5.006,0,0,0,5-5V7Zm0,13H8a1,1,0,0,1,0-2h8a1,1,0,0,1,0,2Zm-2-4H10a3,3,0,0,1,0-6h4a3,3,0,0,1,0,6Z" transform="translate(2321 -1753)" fill="#fff"/>
    <rect id="Rectangle_17394" data-name="Rectangle 17394" width="24" height="24" transform="translate(2321 -1753)" fill="none"/>
  </g>
</svg>
