<svg xmlns="http://www.w3.org/2000/svg" width="25.023" height="30.116" viewBox="0 0 25.023 30.116">
  <g id="drawing_icon" transform="translate(-456.34 -212.745)">
    <path id="Path_210" data-name="Path 210" d="M470.6,212.745a1.52,1.52,0,0,1,.965,1.641c-.033.586,0,1.174-.009,1.762a.432.432,0,0,0,.2.391,3.866,3.866,0,0,1,1.493,4.152,3.88,3.88,0,0,1-7.6-.512,3.821,3.821,0,0,1,1.563-3.618.494.494,0,0,0,.214-.445c-.009-.6.009-1.195-.006-1.792a1.482,1.482,0,0,1,1.011-1.579Zm1.816,6.949a2.927,2.927,0,1,0-2.93,2.916A2.907,2.907,0,0,0,472.418,219.694Zm-1.817-4.8h0V214.1a.4.4,0,0,0-.412-.44c-.469-.02-.939-.018-1.408,0a.38.38,0,0,0-.392.4c-.009.567,0,1.134-.006,1.7,0,.146.058.188.2.152a3.688,3.688,0,0,1,1.8,0c.187.047.223-.041.221-.2C470.6,215.439,470.6,215.165,470.6,214.891Z" transform="translate(-1.286)" fill="#fff"/>
    <path id="Path_211" data-name="Path 211" d="M477.569,241.858a1.889,1.889,0,0,0,.214-1.6,70.039,70.039,0,0,0-3.812-10.07c-.749-1.573-1.539-3.127-2.31-4.69a3.108,3.108,0,0,1-.135-.293.464.464,0,0,1,.816-.427,1.607,1.607,0,0,1,.143.256c.789,1.6,1.582,3.193,2.359,4.8a.465.465,0,0,0,.5.3c.587-.015,1.176-.013,1.763,0a1.337,1.337,0,0,1,1.327.923,1.3,1.3,0,0,1-1.237,1.67c-.264.011-.529.008-.793,0-.181,0-.258.039-.177.236q.817,1.983,1.507,4.013c.032.095.058.2.2.133.122-.059.11-.148.057-.244a1.564,1.564,0,0,1-.224-1.29A1.419,1.419,0,0,1,479,234.55a1.392,1.392,0,0,1,1.353.711c.314.587.615,1.181.892,1.787a1.416,1.416,0,0,1-2.51,1.3c-.035-.059-.064-.121-.1-.18-.07-.117-.086-.29-.312-.191s-.195.218-.136.4c.163.492.308.991.466,1.484a2.881,2.881,0,0,1-.456,2.775.35.35,0,0,0-.038.428c.124.233.244.469.352.711a.475.475,0,1,1-.847.417c-.44-.863-.871-1.732-1.3-2.6q-2.12-4.26-4.235-8.523a.515.515,0,0,0-.537-.338q-3.305.017-6.61,0a.493.493,0,0,0-.516.321c-1.252,2.538-2.519,5.068-3.773,7.6a1.183,1.183,0,0,1-.968.792c-.116.01-.159.1-.2.191-.112.217-.215.439-.337.652a1.277,1.277,0,0,1-1.075.668.392.392,0,0,0-.375.261c-.148.32-.309.634-.472.946s-.414.413-.672.284a.483.483,0,0,1-.169-.705c.158-.326.317-.651.487-.972a.343.343,0,0,0-.014-.4,1.343,1.343,0,0,1-.084-1.4,3.145,3.145,0,0,1,.158-.314.69.69,0,0,0,.062-.739,1.006,1.006,0,0,1,.116-.926q1.366-2.733,2.728-5.467c.1-.192.186-.388.283-.581.074-.146.049-.218-.129-.214-.254,0-.509.005-.763,0a1.289,1.289,0,0,1-1.315-1.2,1.243,1.243,0,0,1,1.164-1.365,16.508,16.508,0,0,1,2.054-.022.534.534,0,0,0,.565-.344c.753-1.539,1.524-3.07,2.29-4.6a1.935,1.935,0,0,1,.172-.307.439.439,0,0,1,.575-.14.446.446,0,0,1,.234.567,2.675,2.675,0,0,1-.146.32q-3.379,6.783-6.758,13.567c-.219.438-.219.439.23.663.35.175.708.336,1.048.528.238.135.351.085.469-.156q1.452-2.951,2.925-5.894,1.932-3.878,3.868-7.754c.245-.49.453-.622.758-.478s.332.407.08.91c-.471.947-.939,1.9-1.419,2.837-.112.22-.08.283.171.281,1.371-.008,2.743,0,4.113,0,.3,0,.309-.011.166-.3q-.713-1.433-1.429-2.865a2.978,2.978,0,0,1-.142-.322.432.432,0,0,1,.221-.571.427.427,0,0,1,.575.131,2.173,2.173,0,0,1,.233.407q3.708,7.44,7.415,14.881C477.434,241.6,477.488,241.7,477.569,241.858Zm-9.284-10.09h.264c.88,0,1.761,0,2.641,0,.078,0,.22.069.222-.1a.665.665,0,0,0-.579-.573c-1.644,0-3.287.009-4.93-.009a.6.6,0,0,0-.669.41c-.091.226-.078.281.175.278C466.367,231.761,467.326,231.767,468.285,231.767Zm12.126,5.769a.666.666,0,0,0-.077-.213c-.252-.506-.5-1.015-.761-1.518a.468.468,0,0,0-.654-.257.482.482,0,0,0-.2.656c.1.241.229.474.347.709.153.3.3.613.466.912a.444.444,0,0,0,.554.214C480.3,237.98,480.4,237.823,480.411,237.536Zm-20.5-5.772v0c.2,0,.409,0,.613,0a.779.779,0,0,0,.5-.6c-.014-.084-.078-.075-.133-.075-.556,0-1.11-.007-1.666.006a.326.326,0,0,0-.33.344.311.311,0,0,0,.345.319C459.458,231.769,459.682,231.764,459.906,231.764Zm16.508-.67v0c-.253,0-.507,0-.759,0-.065,0-.145-.017-.172.072-.048.156.271.6.441.6.409.005.818,0,1.227,0,.213,0,.367-.09.37-.32s-.151-.346-.377-.351C476.9,231.089,476.658,231.094,476.414,231.094ZM458.018,242a.361.361,0,0,0,.324-.167c.079-.122.131-.263.214-.382.171-.243.122-.377-.158-.5-.435-.187-.428-.206-.636.217a1.992,1.992,0,0,0-.14.321A.387.387,0,0,0,458.018,242Z" transform="translate(0 -1.639)" fill="#fff"/>
    <path id="Path_212" data-name="Path 212" d="M469.852,222.155a1.612,1.612,0,1,1,.016-3.223,1.612,1.612,0,1,1-.016,3.223Zm-.644-1.616a.653.653,0,0,0,.653.679.706.706,0,0,0,.672-.649.652.652,0,0,0-.655-.676A.617.617,0,0,0,469.208,220.539Z" transform="translate(-1.65 -0.858)" fill="#fff"/>
  </g>
</svg>
