<svg xmlns="http://www.w3.org/2000/svg" width="25.306" height="30" viewBox="0 0 25.306 30">
  <g id="english_icon" transform="translate(-234.538 -162.545)">
    <path id="Path_181" data-name="Path 181" d="M242.821,162.545a1.324,1.324,0,0,1,.224.291c.122.307-.1.584-.474.586-1.031,0-2.061,0-3.115,0v28.241h11.619c.1,0,.2-.006.292,0a.436.436,0,0,1-.01.873c-.086.008-.174,0-.262,0H237.3a2.572,2.572,0,0,1-2.758-2.782v-24.4a2.569,2.569,0,0,1,2.114-2.778c.016,0,.028-.025.042-.037Zm-4.286,29.113V163.429c-.546,0-1.072-.027-1.593.006a1.675,1.675,0,0,0-1.528,1.784q0,12.329,0,24.658c0,.068,0,.137,0,.2a1.661,1.661,0,0,0,1.5,1.569C237.45,191.688,237.986,191.658,238.536,191.658Z" transform="translate(0 0)" fill="#fff"/>
    <path id="Path_182" data-name="Path 182" d="M260.006,162.545c.08.032.158.069.239.1a1.869,1.869,0,0,1,1.293,1.718c0,.058,0,.117,0,.175q0,13.007,0,26.014a1.875,1.875,0,0,1-1.577,1.966,2.106,2.106,0,0,1-.382.027q-2.306,0-4.611,0c-.049,0-.1,0-.147,0a.434.434,0,0,1-.442-.45.426.426,0,0,1,.437-.423c.245-.011.492,0,.738,0q1.995,0,3.99,0a1,1,0,0,0,1.107-1.085q0-13.035,0-26.072a.994.994,0,0,0-1.08-1.082c-1.015,0-2.029,0-3.044,0-.076,0-.152.007-.257.013v1.034c0,.586.01,1.172,0,1.758a.848.848,0,0,1-1.333.742c-.308-.173-.618-.345-.916-.534a.35.35,0,0,0-.428.007c-.3.189-.606.362-.917.532a.839.839,0,0,1-1.316-.757c-.009-.916,0-1.833,0-2.8h-.33q-2.468,0-4.936,0a.468.468,0,0,1-.5-.279.427.427,0,0,1,.2-.554c.014-.009.018-.032.028-.047Zm-4.643,3.652v-2.752h-3.092v2.748c.365-.211.7-.4,1.023-.593a.923.923,0,0,1,1.027,0C254.654,165.8,254.994,165.984,255.363,166.2Z" transform="translate(-1.697 0)" fill="#fff"/>
    <path id="Path_183" data-name="Path 183" d="M250.253,171.58q3.429,0,6.856,0a1.3,1.3,0,0,1,1.43,1.015,1.747,1.747,0,0,1,.034.38q0,3.354,0,6.709a1.289,1.289,0,0,1-1.418,1.405c-1.586,0-3.172.006-4.758-.005a.486.486,0,0,0-.51.287c-.266.5-.561.994-.852,1.485a.866.866,0,0,1-1.58.005c-.3-.508-.6-1.018-.883-1.535a.411.411,0,0,0-.418-.241c-1.6.009-3.191.005-4.787,0a1.305,1.305,0,0,1-1.459-1.456v-6.59a1.313,1.313,0,0,1,1.459-1.463Q246.81,171.577,250.253,171.58Zm-.011,10.876c.331-.571.652-1.079.926-1.611a1.114,1.114,0,0,1,1.12-.646c1.605.015,3.211.006,4.817.005.469,0,.581-.111.581-.567q0-3.3,0-6.591c0-.46-.115-.579-.575-.58H243.37c-.456,0-.574.124-.574.582q0,3.282,0,6.561c0,.482.109.593.587.594,1.635,0,3.271,0,4.906,0a1.021,1.021,0,0,1,.986.569C249.574,181.322,249.9,181.86,250.241,182.456Z" transform="translate(-1.21 -1.32)" fill="#fff"/>
    <path id="Path_184" data-name="Path 184" d="M250.6,187.856H256.1c.079,0,.159-.005.237,0a.425.425,0,0,1,.414.422.433.433,0,0,1-.409.457,1.955,1.955,0,0,1-.237.005h-11.05a1.279,1.279,0,0,1-.295-.013.44.44,0,0,1,.023-.866,1.511,1.511,0,0,1,.266-.006Z" transform="translate(-1.464 -3.58)" fill="#fff"/>
    <path id="Path_185" data-name="Path 185" d="M250.906,190.577h3.487a1.7,1.7,0,0,1,.266.008.405.405,0,0,1,.373.393.4.4,0,0,1-.3.452,1.094,1.094,0,0,1-.32.033q-3.531,0-7.062,0a1.071,1.071,0,0,1-.236-.01.418.418,0,0,1-.373-.456.4.4,0,0,1,.412-.415c.245-.015.492-.006.738-.006Z" transform="translate(-1.768 -4.011)" fill="#fff"/>
    <path id="Path_186" data-name="Path 186" d="M249.388,176.441c0,.639,0,1.277,0,1.916a1.139,1.139,0,0,1-.04.348.4.4,0,0,1-.461.282.385.385,0,0,1-.371-.357,4.077,4.077,0,0,1-.013-.472c0-1.042,0-2.086,0-3.129,0-.243.034-.462.3-.546s.443.061.588.274c.532.779,1.07,1.554,1.642,2.382.013-.127.026-.2.026-.267,0-.63-.014-1.26-.016-1.89,0-.331.159-.523.422-.533s.457.188.461.53c.014,1.142.019,2.283.028,3.424a.5.5,0,0,1-.342.527.476.476,0,0,1-.58-.234c-.471-.678-.939-1.359-1.41-2.039-.054-.079-.113-.154-.17-.231Z" transform="translate(-1.988 -1.697)" fill="#fff"/>
    <path id="Path_187" data-name="Path 187" d="M257.085,177.156c-.21,0-.4.012-.582,0a.424.424,0,0,1-.419-.443.408.408,0,0,1,.408-.423c.383-.017.768-.019,1.151,0a.429.429,0,0,1,.421.475,2.066,2.066,0,0,1-1.927,2.228,2.268,2.268,0,0,1-2.363-2.047,2.279,2.279,0,0,1,3.422-2.179c.3.171.386.416.244.658a.45.45,0,0,1-.666.12,1.4,1.4,0,0,0-1.22-.121,1.386,1.386,0,0,0,.713,2.667A1.009,1.009,0,0,0,257.085,177.156Z" transform="translate(-2.745 -1.695)" fill="#fff"/>
    <path id="Path_188" data-name="Path 188" d="M245.368,177.166v.929c.347,0,.69-.01,1.03,0,.392.015.62.382.4.669a.623.623,0,0,1-.419.2c-.47.026-.944.014-1.416.009-.332,0-.495-.154-.5-.487q-.01-1.77,0-3.542c0-.332.162-.477.5-.482q.708-.01,1.417,0c.309.005.483.171.485.436a.438.438,0,0,1-.481.445c-.333.01-.665,0-1.019,0v.928c.3,0,.58,0,.862,0,.332.007.52.165.527.431s-.185.446-.533.453C245.955,177.172,245.68,177.166,245.368,177.166Z" transform="translate(-1.41 -1.699)" fill="#fff"/>
  </g>
</svg>
