<svg xmlns="http://www.w3.org/2000/svg" width="27.176" height="30" viewBox="0 0 27.176 30">
  <g id="gujarati_icon" transform="translate(-360.232 -160.84)">
    <g id="Group_44" data-name="Group 44" transform="translate(360.232 160.84)">
      <path id="Path_189" data-name="Path 189" d="M373.823,190.84a4.875,4.875,0,0,1-2.457-.722q-3.646-2.122-7.3-4.222l-1.431-.825a4.428,4.428,0,0,1-2.4-4.1q-.006-3.631,0-7.261v-2.968a4.476,4.476,0,0,1,2.431-4.153q4.343-2.5,8.677-5.015a4.563,4.563,0,0,1,4.928-.013q4.308,2.5,8.625,4.974a4.615,4.615,0,0,1,2.512,4.374c-.017,1.155-.012,2.309-.008,3.464l0,3.043c0,1.155,0,2.311,0,3.466a4.514,4.514,0,0,1-2.432,4.222q-4.367,2.522-8.736,5.041A4.835,4.835,0,0,1,373.823,190.84Zm0-28.813a3.854,3.854,0,0,0-1.979.586c-2.6,1.527-5.381,3.132-8.5,4.907a3.6,3.6,0,0,0-1.96,3.4c.028,3.334.028,6.639,0,9.824a3.642,3.642,0,0,0,2.009,3.439c3.2,1.811,5.865,3.35,8.381,4.843a3.948,3.948,0,0,0,2.043.613h0a4,4,0,0,0,2.06-.619c2.764-1.632,5.6-3.253,8.341-4.82l.1-.057a3.567,3.567,0,0,0,1.927-3.355c-.02-1.14-.016-2.281-.011-3.421l0-1.488,0-1.507c0-1.156-.009-2.312.011-3.467a3.523,3.523,0,0,0-1.918-3.358q-4.289-2.452-8.555-4.947A3.853,3.853,0,0,0,373.826,162.027Z" transform="translate(-360.232 -160.84)" fill="#fff"/>
    </g>
    <g id="Group_45" data-name="Group 45" transform="translate(367.567 167.544)">
      <path id="Path_190" data-name="Path 190" d="M373.576,184.113l1.391-.976c.418.458.809.927,1.242,1.354a4.455,4.455,0,0,0,3.779,1.241c.776-.081,1.453-.357,1.411-1.3-.042-.922-.762-1.067-1.481-1.054a13.97,13.97,0,0,0-1.74.255l-.463-1.2c1.9.011,1.493-1.312,1.5-2.389.01-2.713,0-5.425,0-8.138v-1.226l1.514.2v1.13c0,3.09.008,6.181-.007,9.271,0,.519.065.849.642,1.084a2.2,2.2,0,0,1,1.451,2.459,2.262,2.262,0,0,1-1.743,2.064,5.1,5.1,0,0,1-4.1-.3A33.66,33.66,0,0,1,373.576,184.113Z" transform="translate(-370.321 -170.585)" fill="#fff"/>
      <path id="Path_191" data-name="Path 191" d="M370.321,176.35l1.043-.69c.487.431.9.837,1.351,1.187a1.776,1.776,0,0,0,3-1.061,4.9,4.9,0,0,0,.087-1.123c-.027-2.18-1.187-3.043-3.3-2.459-.258.072-.507.173-.86.295l-.432-1.119c2.931-1.832,5.885-.358,6.1,2.97a7.748,7.748,0,0,1,.006.821c-.063,1.4-.375,2.711-1.834,3.278a3.722,3.722,0,0,1-4.155-.935C370.984,177.188,370.7,176.8,370.321,176.35Z" transform="translate(-370.321 -170.585)" fill="#fff"/>
    </g>
  </g>
</svg>
