<svg xmlns="http://www.w3.org/2000/svg" width="24" height="24" viewBox="0 0 24 24">
  <g id="height_icon" transform="translate(-6915 -3733)">
    <rect id="Rectangle_17458" data-name="Rectangle 17458" width="24" height="24" transform="translate(6915 3733)" fill="none"/>
    <g id="Group_7349" data-name="Group 7349" transform="translate(5710.345 3627.07)">
      <g id="Group_7347" data-name="Group 7347" transform="translate(1212.139 112.427)">
        <path id="Path_3495" data-name="Path 3495" d="M1221.162,261.9a2.6,2.6,0,0,0-2.448-2.452c-.683-.009-1.375-.014-2.058-.014s-1.375,0-2.058.014a2.6,2.6,0,0,0-2.448,2.452c-.018,2.142-.01,4.28,0,5.9a1.665,1.665,0,0,0,1.662,1.611,1.567,1.567,0,0,0,.2-.013v1.814c0,1.264,0,2.57,0,3.855a1.9,1.9,0,0,0,.469,1.356,2.191,2.191,0,0,0,.8.494l.047.019h.77l.051-.024c.046-.022.094-.041.146-.063a.457.457,0,0,1,.73,0c.052.021.1.041.146.063l.051.024h.77l.047-.019a2.191,2.191,0,0,0,.8-.494,1.9,1.9,0,0,0,.469-1.356c0-1.285,0-2.591,0-3.855V269.4a1.569,1.569,0,0,0,.2.013,1.666,1.666,0,0,0,1.662-1.611C1221.172,266.175,1221.179,264.038,1221.162,261.9Zm-1.86,2.291a1.61,1.61,0,0,0-.051-.442.76.76,0,0,0-.706-.54h-.03a.743.743,0,0,0-.706.649,1.862,1.862,0,0,0-.01.246c0,.017,0,.033,0,.05q0,2.242,0,4.483v1.646q0,2.36,0,4.72v0a1.034,1.034,0,0,1-.026.294c-.038.124-.087.146-.175.146h0a.162.162,0,0,1-.176-.142,1.127,1.127,0,0,1-.014-.226v-.027q0-1.885,0-3.769v-1.5a1.14,1.14,0,0,0-.05-.4.766.766,0,0,0-.7-.515h-.005a.758.758,0,0,0-.7.523,1.139,1.139,0,0,0-.047.393v2.2q0,1.549,0,3.1c0,.018,0,.035,0,.052a.53.53,0,0,1-.016.183c-.043.111-.1.132-.176.132h0c-.082,0-.13-.022-.168-.137a.966.966,0,0,1-.028-.3v-.033q0-5.4,0-10.8c0-.018,0-.036,0-.055a1.921,1.921,0,0,0-.011-.265.749.749,0,0,0-.678-.64l-.057,0a.753.753,0,0,0-.707.546,1.657,1.657,0,0,0-.049.463v.388c0,1,0,2.039,0,3.057,0,.234-.113.234-.173.234l-.036,0a.153.153,0,0,1-.15-.146,1.043,1.043,0,0,1-.005-.123q0-.721,0-1.441c0-1.338,0-2.721,0-4.082a1.111,1.111,0,0,1,.858-1.135,1.37,1.37,0,0,1,.333-.026h2.145c.549,0,1.031,0,1.475,0a1.106,1.106,0,0,1,1.207,1.19c0,1.555,0,3.136,0,4.665v.836c0,.237-.075.25-.135.261a.327.327,0,0,1-.056.005c-.109,0-.166-.061-.17-.181-.008-.266-.007-.539-.005-.8q0-.147,0-.294v-.047C1219.3,265.788,1219.3,264.981,1219.3,264.187Z" transform="translate(-1212.139 -259.43)" fill="#fff"/>
      </g>
      <g id="Group_7348" data-name="Group 7348" transform="translate(1214.012 105.93)">
        <path id="Path_3496" data-name="Path 3496" d="M1260.912,106.7a2.624,2.624,0,0,0-1.857-.772h0a2.635,2.635,0,0,0-1.882.792,2.583,2.583,0,0,0-.763,1.85,2.673,2.673,0,0,0,2.645,2.621h.006a2.659,2.659,0,0,0,1.863-.794,2.591,2.591,0,0,0,.773-1.845A2.62,2.62,0,0,0,1260.912,106.7Zm-.727,1.849a1.152,1.152,0,0,1-1.134,1.137h-.005a1.143,1.143,0,0,1-.806-.349,1.1,1.1,0,0,1-.323-.8,1.13,1.13,0,0,1,1.138-1.111h0A1.124,1.124,0,0,1,1260.185,108.551Z" transform="translate(-1256.408 -105.93)" fill="#fff"/>
      </g>
    </g>
  </g>
</svg>
