<svg xmlns="http://www.w3.org/2000/svg" width="27.176" height="30" viewBox="0 0 27.176 30">
  <g id="hindi_icon" transform="translate(-316.576 -160.355)">
    <path id="Path_179" data-name="Path 179" d="M330.167,190.355a4.88,4.88,0,0,1-2.457-.722q-3.646-2.122-7.3-4.222l-1.432-.825a4.428,4.428,0,0,1-2.4-4.1q0-3.631,0-7.261v-2.968a4.478,4.478,0,0,1,2.431-4.153q4.343-2.5,8.677-5.015a4.563,4.563,0,0,1,4.928-.013q4.308,2.5,8.625,4.974a4.615,4.615,0,0,1,2.512,4.374c-.016,1.155-.012,2.309-.007,3.464l0,3.043c0,1.155,0,2.311,0,3.466a4.513,4.513,0,0,1-2.431,4.222q-4.368,2.522-8.736,5.041A4.835,4.835,0,0,1,330.167,190.355Zm0-28.813a3.854,3.854,0,0,0-1.979.586c-2.6,1.527-5.381,3.132-8.5,4.907a3.6,3.6,0,0,0-1.961,3.4c.029,3.334.029,6.639,0,9.823a3.643,3.643,0,0,0,2.009,3.44c3.2,1.811,5.866,3.35,8.381,4.842a3.942,3.942,0,0,0,2.044.614h0a4,4,0,0,0,2.06-.619c2.764-1.632,5.6-3.254,8.341-4.82l.1-.057a3.567,3.567,0,0,0,1.928-3.355c-.021-1.14-.016-2.281-.011-3.421l0-1.488,0-1.507c-.005-1.156-.01-2.312.011-3.467a3.526,3.526,0,0,0-1.918-3.358q-4.29-2.452-8.556-4.947A3.851,3.851,0,0,0,330.169,161.542Z" fill="#fff"/>
    <path id="Path_180" data-name="Path 180" d="M324.656,186.668c-.232,0-.464-.009-.694-.022a.64.64,0,0,1-.585-.718.6.6,0,0,1,.613-.667h.775c.163,0,.325,0,.487-.016,1.43-.11,2.5-1.653,2.5-3.59s-1.086-3.467-2.514-3.564c-.146-.01-.291-.013-.437-.013l-.507,0c-.122,0-.244,0-.366-.009a.607.607,0,0,1-.548-.68.628.628,0,0,1,.546-.7c.218-.012.435-.015.653-.015l.77,0c.168,0,.336,0,.5-.008,1.1-.04,1.9-1.121,1.894-2.57-.007-1.413-.782-2.487-1.844-2.554-.225-.014-.45-.018-.675-.018l-.832.006-.321,0a.7.7,0,0,1-.586-.269.728.728,0,0,1-.109-.433.649.649,0,0,1,.723-.69l.184,0c.285-.005.569-.01.854-.01.255,0,.511,0,.765.016a2.786,2.786,0,0,1,2.322,1.683,5.518,5.518,0,0,1,.345,3.634l-.267,1.185h4.148v-4.662c0-1.311.057-1.389,1.015-1.39l1.616,0c.388,0,.777,0,1.165.007a.652.652,0,0,1,.7.713.633.633,0,0,1-.712.679l-2.79,0v12.881c0,.121,0,.241,0,.36-.011.379-.107.831-.5.832-.425,0-.491-.509-.493-.812-.008-1.357-.006-2.714,0-4.07v-3.04h-4.232l.082.6c.047.345.109.691.17,1.037a11.045,11.045,0,0,1,.24,2.085c-.045,2.592-1.407,4.552-3.314,4.765A6.542,6.542,0,0,1,324.656,186.668Z" transform="translate(0 -3.042)" fill="#fff"/>
  </g>
</svg>
