<svg height="512pt" viewBox="0 0 512 512" width="512pt" xmlns="http://www.w3.org/2000/svg" xmlns:xlink="http://www.w3.org/1999/xlink"><linearGradient id="a" gradientTransform="matrix(1 0 0 -1 0 -10886)" gradientUnits="userSpaceOnUse" x1="0" x2="512" y1="-11142" y2="-11142"><stop offset="0" stop-color="#00f38d"/><stop offset="1" stop-color="#009eff"/></linearGradient><path d="m512 256c0 141.386719-114.613281 256-256 256s-256-114.613281-256-256 114.613281-256 256-256 256 114.613281 256 256zm0 0" fill="url(#a)"/><path d="m447.160156 225.359375-191.160156-166.007813-191.160156 166.007813 19.671875 22.652344 17.804687-15.464844v146.410156c0 24.714844 20.109375 44.824219 44.824219 44.824219h83.597656v-146.140625h52.015625v146.140625h82.105469c24.71875 0 44.824219-20.109375 44.824219-44.824219v-146.410156l17.808594 15.464844zm-67.476562 153.597656c0 8.171875-6.648438 14.824219-14.824219 14.824219h-52.105469v-146.140625h-112.015625v146.140625h-53.597656c-8.175781 0-14.824219-6.652344-14.824219-14.824219v-172.460937l123.683594-107.410156 123.683594 107.410156zm0 0" fill="#fff"/></svg>