<svg xmlns="http://www.w3.org/2000/svg" width="246" height="255.472" viewBox="0 0 246 255.472">
  <g id="Logo" transform="translate(-155.999 -137.071)">
    <path id="Path_9" data-name="Path 9" d="M433.06,441.064c.314-.447.621-.9.928-1.362.1-.142.19-.288.285-.431l-39.648-20.8-1.011-.453V340.281l-.25-.19-8.554-6.413v88.706l45.981,21.769Q431.951,442.652,433.06,441.064Z" transform="translate(-180.813 -155.365)" fill="#80ed99"/>
    <path id="Path_10" data-name="Path 10" d="M581.106,424.213a28.81,28.81,0,0,1-10.554-1.929,25.786,25.786,0,0,1-10.129-7.183l-.035.013-.029-.089a32.239,32.239,0,0,1-3.257-4.49q-.413-.67-.8-1.375-.927-1.673-1.739-3.529c-.212-.482-.418-.97-.615-1.47a65.768,65.768,0,0,1-3.552-12.809,117.923,117.923,0,0,1-1.3-28.226c1.087-16.954,7.1-33.293,17.86-48.564a121.1,121.1,0,0,1,9.587-11.884l-37.326,29.392L491.76,298.91a117.1,117.1,0,0,1,20.559,27.7v0l.016.009-.006.009a103.867,103.867,0,0,1,7.306,17.423,93.636,93.636,0,0,1,3.219,13.652c.114.722.222,1.448.317,2.17a85.571,85.571,0,0,1,.735,13.243,1.5,1.5,0,0,1-.006.168c-.009.352-.025.707-.035,1.058q-.019.4-.038.808-.024.523-.057,1.046a77.115,77.115,0,0,1-2.89,16.8c-.155.529-.314,1.058-.482,1.587q-1,3.175-2.275,6.245a71.85,71.85,0,0,1-3.894,7.914c-.263.463-.529.919-.8,1.375a76.2,76.2,0,0,1-4.949,7.246c-.358.469-.729.935-1.106,1.4a81.25,81.25,0,0,1-6.08,6.7c-.292.285-.589.573-.887.862-.859.824-1.746,1.638-2.652,2.436a94.847,94.847,0,0,1-16.462,11.6,114.112,114.112,0,0,0,55.987-21.031l.421.589c.006,0,.006.01.01.013,13.342,15.658,31.17,21.161,48.922,15.1a44.487,44.487,0,0,0,25.958-23.211C607.368,415.779,594.619,424.21,581.106,424.213Z" transform="translate(-257.056 -127.89)" fill="#22577a"/>
    <path id="Path_11" data-name="Path 11" d="M908.437,333.678v88.706l-47.388,22.435a25.654,25.654,0,0,1-2.639-2.4c-.127-.133-.25-.266-.374-.4s-.269-.295-.4-.447c-.111-.124-.215-.247-.32-.371q-.2-.233-.4-.475-.561-.684-1.087-1.423l42.962-22.371.016-.01,1.074-.494V340.091l1.955-1.467,1.584-1.185Z" transform="translate(-553.028 -155.365)" fill="#80ed99"/>
    <path id="Path_12" data-name="Path 12" d="M883.475,300.45v88.706l-.222.1-29.224,15.217-13.921,7.249c-.14-.212-.272-.425-.4-.643-.117-.187-.234-.374-.345-.564-.158-.266-.307-.536-.463-.808-.361-.649-.716-1.321-1.052-2.018-.231-.475-.453-.963-.672-1.46-.035-.079-.07-.162-.1-.241l2.348-1.486c0,.006.009.013.009.019L873.805,381.1V307.7Z" transform="translate(-538.204 -129.107)" fill="#57cc99"/>
    <path id="Path_13" data-name="Path 13" d="M851.418,467.075v39.5l-33.457,22.8-.007,0-2.3,1.451a59.627,59.627,0,0,1-2.3-7.281c-.133-.535-.26-1.08-.386-1.632-.051-.247-.111-.5-.162-.748-.047-.216-.092-.431-.136-.647l28.5-17.27V482.533l-30.428,16.295c.013-2.525.095-5.215.282-8.073a88.237,88.237,0,0,1,7.62-30.463v24.637l31.186-17Z" transform="translate(-517.401 -255.419)" fill="#38a3a5"/>
    <path id="Path_14" data-name="Path 14" d="M498.545,329.031v22.831l26.62,17.993c-.089.3-.174.6-.269.89q-1.031,3.322-2.376,6.559-.794,1.9-1.676,3.7L488.707,359.3V269.911a120.16,120.16,0,0,1,26.576,31.727l-16.754-11.891v25.426l28.825,20.588.114.77c.057.421.111.837.162,1.258.01.064.016.13.025.193.035.31.073.621.108.931s.066.643.1.963c.025.291.057.58.079.871s.047.577.073.862c.016.19.029.38.044.567,0,.051.006.1.01.149s.009.1.009.149c0,.019,0,.038,0,.057s0,.035,0,.051c0,.063.009.127.016.19,0,.041,0,.082,0,.124q.081,1.26.12,2.519c.013.44.022.878.035,1.318q.014,1.307,0,2.611Z" transform="translate(-262.916 -104.974)" fill="#38a3a5"/>
    <path id="Path_15" data-name="Path 15" d="M477.16,412.534c-.478.932-.976,1.85-1.486,2.744l-.057.1c-.247.431-.494.855-.748,1.277-.019.032-.038.067-.054.1q-.271.451-.551.894l-16.773-8.8-23.015-12.078-.143-.073V308l9.822,7.366v1.264l.317.238v0l-.317-.238v73.6Z" transform="translate(-219.948 -135.075)" fill="#57cc99"/>
    <path id="Path_16" data-name="Path 16" d="M885.876,262.329v22.815l-1.584.8-29.94,15.243c8.019-16.551,19.811-28.917,28.752-36.664.4-.348.8-.691,1.188-1.017l.086-.07.966-.675.526-.421Z" transform="translate(-551.858 -98.983)" fill="#38a3a5"/>
    <path id="Path_17" data-name="Path 17" d="M627.778,214.451a24.608,24.608,0,0,1,.443-4.286,39.3,39.3,0,0,1,2.54-7.466c.294-.707.593-1.431.884-2.157l-.941-.579-.574-.351-.938-.576c-.37.873-.761,1.738-1.148,2.586a31.818,31.818,0,0,0-3.1,9.166,10.128,10.128,0,0,0,.653,4.5h0l-1.4.533,2.5,6.544,4.722-1.8-2.5-6.544Zm2.238,5.48-2.69,1.028-1.724-4.512.356-.136c.079.212.161.424.239.634a26.97,26.97,0,0,1,.963,2.872l1.061-.231a26.116,26.116,0,0,1-.432-3.974l.5-.193" transform="translate(-369.985 -48.966)" fill="#22577a"/>
    <path id="Path_18" data-name="Path 18" d="M664.461,166.57l-.152-.245-.291-.008a23.62,23.62,0,0,0-12.946,3.773,13.066,13.066,0,0,1,6.087-3.854c.218-.076.435-.152.664-.223.12-.038.239-.076.359-.111s.261-.079.394-.117c.22-.062.443-.125.672-.185l.1-.024c.267-.071.536-.136.813-.2.071-.019.144-.035.218-.052.218-.049.438-.1.661-.144l.228-.049c.267-.054.541-.109.819-.16.022,0,.043-.008.068-.011q.53-.1,1.085-.188l.457-.073v-6.166l15.267-4.836-27.084-16.624-30.3,9.6,5.543,3.4.938.576.574.351.941.579,6.732,4.131.258-.112a25.255,25.255,0,0,1,2.456-.9,33.911,33.911,0,0,1,15.041-.8l-.974.025v0c-.234.005-.468.014-.7.022-.405.014-.811.033-1.219.054-.3.016-.6.035-.908.055l-.038,0c-.3.022-.6.043-.906.068a.658.658,0,0,1-.073.005c-.291.024-.579.052-.868.082-.035,0-.068.005-.1.011-.277.027-.557.057-.835.09l-.131.016c-.266.033-.536.068-.8.1-.052.008-.1.016-.153.022-.258.038-.517.076-.772.117l-.171.027q-.371.061-.742.13l-.19.035c-.239.046-.476.092-.71.141-.071.016-.139.033-.209.046q-.339.074-.677.155c-.076.016-.152.038-.228.055-.215.054-.427.109-.636.166-.087.024-.171.046-.256.071-.2.057-.394.114-.59.174-.1.027-.19.057-.286.087-.18.057-.359.117-.536.177l-.318.114c-.16.057-.318.117-.476.177-.12.046-.239.092-.356.142l-.318.128-.315.136-.321.144v5.853a17.838,17.838,0,0,0-2.211,2.228,17.61,17.61,0,0,0,13.542,28.849c.547,0,1.1-.027,1.651-.079a17.627,17.627,0,0,0,15.895-19.169A17.391,17.391,0,0,0,664.461,166.57Z" transform="translate(-367.916)" fill="#22577a"/>
    <text id="eSchool" transform="translate(155.999 375.543)" fill="#57cc99" font-size="68" font-family="Righteous-Regular, Righteous"><tspan x="0" y="0">e</tspan><tspan y="0" fill="#22577a">School</tspan></text>
  </g>
</svg>
