<svg xmlns="http://www.w3.org/2000/svg" width="30.29" height="30.213" viewBox="0 0 30.29 30.213">
  <g id="maths_icon" transform="translate(-267.953 -161.841)">
    <path id="Path_174" data-name="Path 174" d="M267.953,162.228c.424-.5.706-.514,1.184-.036l28.768,28.774a1.568,1.568,0,0,1,.251.289.505.505,0,0,1-.45.792H283.661q-7.526,0-15.05.007c-.31,0-.535-.064-.658-.362ZM290.592,185.4l-2.51-2.508c-.05.046-.121.112-.19.18-.314.313-.624.63-.942.941a.6.6,0,1,1-.845-.826c.15-.157.3-.312.461-.46.243-.226.492-.444.705-.635l-2.553-2.552c-.331.335-.683.694-1.037,1.049-.385.386-.718.436-1,.155s-.226-.606.165-1l1.022-1.019-2.524-2.528c-.152.161-.331.358-.519.547-.237.237-.469.48-.725.695a.558.558,0,0,1-.752-.03.58.58,0,0,1-.073-.753,1.949,1.949,0,0,1,.234-.265c.354-.352.711-.7,1.042-1.028l-2.521-2.535c-.178.184-.367.385-.56.579-.223.224-.439.455-.678.66a.56.56,0,0,1-.8-.015.579.579,0,0,1-.025-.8,2.98,2.98,0,0,1,.244-.257l.98-.98-2.538-2.534a1.7,1.7,0,0,1-.158.207c-.325.331-.648.663-.983.982a.6.6,0,0,1-.872.035.6.6,0,0,1,.041-.872c.093-.1.193-.2.292-.294l.857-.826-4.672-4.673v26.886h26.958l-4.731-4.727a1.526,1.526,0,0,1-.164.23q-.486.5-.982.984a.529.529,0,0,1-.644.153.724.724,0,0,1-.36-.449.9.9,0,0,1,.235-.591C289.831,186.126,290.231,185.76,290.592,185.4Z" transform="translate(0 0)" fill="#fff"/>
    <path id="Path_175" data-name="Path 175" d="M299.392,181.562a1.812,1.812,0,0,1-.542,1.272c-.534.54-1.063,1.085-1.612,1.609a1.76,1.76,0,0,1-2.609-.028q-8.233-8.226-16.455-16.462a1.187,1.187,0,0,1-.269-.447c-.537-1.584-1.061-3.173-1.593-4.76a.644.644,0,0,1,.1-.716.651.651,0,0,1,.74-.11c1.587.531,3.175,1.055,4.759,1.593a1.191,1.191,0,0,1,.443.274Q290.581,172,298.8,180.221A1.884,1.884,0,0,1,299.392,181.562Zm-5.209-4.2-11.937-11.938-2.426,2.424,11.933,11.94Zm2.609,2.516-2.516,2.522c.4.393.8.808,1.223,1.207a.586.586,0,0,0,.913-.018q.793-.774,1.567-1.566a.594.594,0,0,0,.011-.935C297.595,180.68,297.188,180.28,296.792,179.882Zm-17.858-13.015,2.326-2.33-3.491-1.161Zm14.438,14.609,2.449-2.451-.707-.769-2.5,2.465Z" transform="translate(-1.154 -0.002)" fill="#fff"/>
    <path id="Path_176" data-name="Path 176" d="M273.863,182.442c0-1.913,0-3.826,0-5.739,0-.307.05-.581.361-.712a.674.674,0,0,1,.785.246q5.81,5.819,11.626,11.633a1.363,1.363,0,0,1,.213.244.571.571,0,0,1-.384.87,2.02,2.02,0,0,1-.382.024q-5.679,0-11.358,0c-.059,0-.118,0-.177,0a.621.621,0,0,1-.679-.709c0-1.272,0-2.544,0-3.816ZM284.8,187.81l-9.741-9.743v9.743Z" transform="translate(-0.822 -1.961)" fill="#fff"/>
    <path id="Path_177" data-name="Path 177" d="M290.042,174.937a.6.6,0,0,1-.842.61,1,1,0,0,1-.235-.177q-1.184-1.179-2.363-2.363a.557.557,0,0,1-.195-.661.761.761,0,0,1,.437-.374.716.716,0,0,1,.551.175c.832.8,1.643,1.619,2.451,2.443A1.272,1.272,0,0,1,290.042,174.937Z" transform="translate(-2.56 -1.408)" fill="#fff"/>
    <path id="Path_178" data-name="Path 178" d="M291.81,177.965a.6.6,0,0,1-.578-.591.58.58,0,1,1,1.16,0A.6.6,0,0,1,291.81,177.965Z" transform="translate(-3.238 -2.079)" fill="#fff"/>
  </g>
</svg>
