<svg xmlns="http://www.w3.org/2000/svg" width="24" height="24" viewBox="0 0 24 24">
  <g id="Medium_icon" transform="translate(-6915 -3850)">
    <g id="wieght_icon" transform="translate(0 117)">
      <rect id="Rectangle_17458" data-name="Rectangle 17458" width="24" height="24" transform="translate(6915 3733)" fill="none"/>
    </g>
    <g id="Group_7351" data-name="Group 7351" transform="translate(5866.662 3800.428)">
      <path id="Path_3498" data-name="Path 3498" d="M1060.347,73.572a1.382,1.382,0,0,1-.495-.1c-1.74-.658-3.511-1.322-5.224-1.963l-1.863-.7a.84.84,0,0,1-.667-.968q0-.279,0-.558c0-.558,0-1.136,0-1.7,0-.146-.024-.206-.173-.255a2.419,2.419,0,0,1,.007-4.618c.131-.043.167-.094.166-.237-.007-.746,0-1.514,0-2.192a.766.766,0,0,1,.766-.844,1.043,1.043,0,0,1,.349.064c.348.124.708.26,1.07.4a.311.311,0,0,0,.114.026.229.229,0,0,0,.166-.086,7.888,7.888,0,0,1,2.711-1.779.377.377,0,0,0,.1-.049.351.351,0,0,0-.075-.078,4.584,4.584,0,0,1-1.653-2.963,4.646,4.646,0,0,1,1.875-4.5,4.828,4.828,0,0,1,2.2-.908h1.23l.007,0,.175.038a5.773,5.773,0,0,1,.89.244,4.752,4.752,0,0,1,1.4,8.059,1.518,1.518,0,0,0-.114.1c.028.016.086.04.142.063a7.923,7.923,0,0,1,2.633,1.733.3.3,0,0,0,.212.112h0a.376.376,0,0,0,.145-.035c.292-.124.594-.233.887-.339l.118-.043a1.1,1.1,0,0,1,.373-.07.778.778,0,0,1,.763.868v.276c0,.62,0,1.262,0,1.893a.2.2,0,0,0,.167.236,2.419,2.419,0,0,1,0,4.619c-.137.045-.174.1-.172.232.007.574.005,1.157,0,1.72q0,.282,0,.564a.841.841,0,0,1-.668.968l-3.678,1.379-1.687.632-.484.18c-.407.151-.827.307-1.236.47A1.27,1.27,0,0,1,1060.347,73.572Zm-6.667-12.2h-.011s-.014.018-.011.111c.01.352.01.674,0,.982,0,.12.032.171.162.23a1.207,1.207,0,0,1,.774,1.171c0,.735,0,1.49,0,2.306a1.206,1.206,0,0,1-.775,1.17c-.126.057-.162.109-.16.232.008.565.008,1.138,0,1.7a.214.214,0,0,0,.169.245c1.365.508,2.751,1.028,4.091,1.532l1.469.551a.971.971,0,0,0,.163.053,1.122,1.122,0,0,0,.008-.185q0-1.7,0-3.406s0-1.05,0-1.356c0-.966,0-1.966,0-2.949a.227.227,0,0,0-.177-.263c-.46-.165-.925-.341-1.374-.511l-.5-.19-.887-.332c-.932-.349-1.895-.71-2.84-1.07A.325.325,0,0,0,1053.68,61.373Zm13.318,0a.344.344,0,0,0-.1.027c-2.228.841-3.943,1.483-5.561,2.081a.283.283,0,0,0-.218.331c.007.955.006,1.925.005,2.864q0,.479,0,.957t0,.961c0,.953,0,1.938,0,2.907,0,.109.011.137.019.145s.014,0,.017,0h0a.39.39,0,0,0,.12-.031c1.719-.652,3.545-1.337,5.581-2.094a.214.214,0,0,0,.166-.247c-.007-.492-.007-1.017,0-1.7a.2.2,0,0,0-.139-.222,1.233,1.233,0,0,1-.8-1.228c.009-.723.009-1.467,0-2.211a1.237,1.237,0,0,1,.8-1.228c.109-.048.14-.093.137-.2-.008-.4-.008-.714,0-1,0-.088-.01-.106-.012-.109H1067Zm-14.124,2.777a2.234,2.234,0,0,0-.268.026,1.318,1.318,0,0,0-.139.029l-.013,0a.828.828,0,0,0-.606,1.066.976.976,0,0,0,.914.624h0a.783.783,0,0,0,.213-.029c.051-.014.055-.032.055-.115,0-.141,0-.28,0-.42q0-.152,0-.3v-.488C1053.031,64.163,1053.008,64.152,1052.874,64.152Zm14.9.017a.153.153,0,0,0-.1.026.146.146,0,0,0-.022.1c0,.174,0,.352,0,.523,0,.067,0,.133,0,.2v.442c0,.417.044.437.181.437h0a1.924,1.924,0,0,0,.317-.043.823.823,0,0,0,.68-.564.8.8,0,0,0-.169-.824,1,1,0,0,0-.842-.3ZM1056.1,60.58l.012.006,1.158.434c.949.356,1.931.724,2.9,1.089a.481.481,0,0,0,.173.033h0a.59.59,0,0,0,.209-.043l.3-.115c1.185-.447,2.411-.91,3.619-1.357a.371.371,0,0,0,.1-.051.39.39,0,0,0-.084-.078,6.633,6.633,0,0,0-4.168-1.449h-.01a6.488,6.488,0,0,0-3.351.921A5.663,5.663,0,0,0,1056.1,60.58Zm4.231-9.462a3.224,3.224,0,0,0-2.262.965,3.09,3.09,0,0,0-.9,2.211,3.157,3.157,0,0,0,3.185,3.179h.027a3.171,3.171,0,0,0,3.139-3.172A3.191,3.191,0,0,0,1060.329,51.118Z" fill="#fff"/>
    </g>
  </g>
</svg>
