<svg xmlns="http://www.w3.org/2000/svg" width="24" height="24" viewBox="0 0 24 24">
  <g id="menu_icon" transform="translate(-2076 1770)">
    <g id="Layer_2" data-name="Layer 2" transform="translate(2076 -1770)">
      <g id="Layer_1" data-name="Layer 1">
        <path id="Path_254" data-name="Path 254" d="M7,0H4A4,4,0,0,0,0,4V7a4,4,0,0,0,4,4H7a4,4,0,0,0,4-4V4A4,4,0,0,0,7,0ZM9,7A2,2,0,0,1,7,9H4A2,2,0,0,1,2,7V4A2,2,0,0,1,4,2H7A2,2,0,0,1,9,4Z" fill="#212121"/>
        <path id="Path_255" data-name="Path 255" d="M7,13H4a4,4,0,0,0-4,4v3a4,4,0,0,0,4,4H7a4,4,0,0,0,4-4V17A4,4,0,0,0,7,13Zm2,7a2,2,0,0,1-2,2H4a2,2,0,0,1-2-2V17a2,2,0,0,1,2-2H7a2,2,0,0,1,2,2Z" fill="#212121"/>
        <path id="Path_256" data-name="Path 256" d="M20,13H17a4,4,0,0,0-4,4v3a4,4,0,0,0,4,4h3a4,4,0,0,0,4-4V17A4,4,0,0,0,20,13Zm2,7a2,2,0,0,1-2,2H17a2,2,0,0,1-2-2V17a2,2,0,0,1,2-2h3a2,2,0,0,1,2,2Z" fill="#212121"/>
        <path id="Path_257" data-name="Path 257" d="M14,7h3v3a1,1,0,0,0,2,0V7h3a1,1,0,0,0,0-2H19V2a1,1,0,0,0-2,0V5H14a1,1,0,0,0,0,2Z" fill="#212121"/>
      </g>
    </g>
    <rect id="Rectangle_32" data-name="Rectangle 32" width="24" height="24" transform="translate(2076 -1770)" fill="none"/>
  </g>
</svg>
