<svg xmlns="http://www.w3.org/2000/svg" width="33.02" height="30.073" viewBox="0 0 33.02 30.073">
  <g id="noticeboard_icon" transform="translate(-297.971 -1056.92)">
    <path id="Path_65" data-name="Path 65" d="M303.524,1063.308a1.319,1.319,0,0,1-1.209-.538,1.185,1.185,0,0,1,.805-1.849,2.478,2.478,0,0,1,.379-.021H332.79a1.467,1.467,0,0,1,1.076.382,1.16,1.16,0,0,1,.316.856,1.191,1.191,0,0,1-.985,1.14,3.462,3.462,0,0,1-.513.026l-.024-.186v.186H311.839q-4.155,0-8.311,0Z" transform="translate(-3.62 -3.485)" fill="#38a3a5"/>
    <path id="Path_66" data-name="Path 66" d="M303.518,1237.544a1.315,1.315,0,0,1-1.248-.613,1.183,1.183,0,0,1,.9-1.782c.094-.009.186-.01.272-.01h29.481a1.378,1.378,0,0,1,.439.056,1.2,1.2,0,0,1-.173,2.314,2.523,2.523,0,0,1-.412.032H321.73l-18.211,0Z" transform="translate(-3.619 -156.107)" fill="#38a3a5"/>
    <path id="Path_67" data-name="Path 67" d="M340.678,1176.48c-.755,0-1.511-.007-2.266,0-.195,0-.254-.05-.254-.248q.008-2.282,0-4.564c0-.168.051-.217.217-.216q2.3.008,4.6,0c.169,0,.218.055.217.22q-.011,2.266-.005,4.531c0,.231-.086.28-.3.276C342.146,1176.473,341.412,1176.48,340.678,1176.48Z" transform="translate(-35.197 -100.327)" fill="#38a3a5"/>
    <path id="Path_68" data-name="Path 68" d="M335.318,1107.12a.691.691,0,0,1-.06-.39c0-.029,0-.057,0-.086q0-.823,0-1.646c0-.995,0-2.024-.009-3.035a.486.486,0,0,1,.107-.366.443.443,0,0,1,.329-.108c.816.005,1.626.007,2.435.007s1.618,0,2.428,0h0a.452.452,0,0,1,.343.1.447.447,0,0,1,.106.328c-.009,1.1-.012,2.221-.014,3.3q0,.743,0,1.486c0,.018,0,.037,0,.056a.516.516,0,0,1-.091.37l-.056.071-.89-.006c-.582,0-1.165-.008-1.748-.008h-.187c-.585,0-1.18.008-1.756.014l-.884.01Z" transform="translate(-32.654 -39.039)" fill="#38a3a5"/>
    <path id="Path_69" data-name="Path 69" d="M336.8,1108.347a.778.778,0,0,1-.034-.388c0-1.561,0-3.122-.012-4.683,0-.213.035-.288.256-.286,1.619.01,3.238.007,4.857,0,.171,0,.267.012.265.244-.014,1.6-.012,3.193-.018,4.79a.455.455,0,0,1-.049.311c-.912-.005-1.824-.015-2.736-.013C338.482,1108.325,337.639,1108.338,336.8,1108.347Z" transform="translate(-33.968 -40.353)" fill="#38a3a5"/>
    <path id="Path_70" data-name="Path 70" d="M329.871,1060.251a1.6,1.6,0,0,0,1.051-.911.5.5,0,0,0,.037-.12l.032-.006v-1.1a1.722,1.722,0,0,0-1.955-1.19H299.669a1.707,1.707,0,0,0-1.68,1.463,1.688,1.688,0,0,0,1.241,1.886c.1.027.1.027.1.14,0,6.441,0,12.346,0,18.05,0,.107,0,.107-.108.138a1.713,1.713,0,0,0,.615,3.355h9.309l-.29.289c-.437.433-.867.861-1.3,1.29a1.432,1.432,0,0,0-.395,1.47,1.465,1.465,0,0,0,1.411,1.087,1.586,1.586,0,0,0,1.115-.474c.759-.752,1.527-1.52,2.269-2.263l1.089-1.091v.845q0,1.165,0,2.33a1.484,1.484,0,0,0,1.485,1.553,1.5,1.5,0,0,0,1.5-1.537c0-.612,0-1.232,0-1.834,0-.4,0-.8,0-1.2q.5.493.989.989c.728.731,1.483,1.488,2.231,2.226a1.531,1.531,0,0,0,1.077.458,1.494,1.494,0,0,0,1.031-2.561c-.194-.2-.395-.4-.589-.592l-.022-.022c-.288-.284-.577-.567-.87-.855l-.115-.113,5.729,0h3.559a4.471,4.471,0,0,0,.5-.021,1.662,1.662,0,0,0,1.362-.966.6.6,0,0,0,.041-.112c0-.012.009-.03.012-.04l.025-.01v-1.082l-.015-.006c0-.009,0-.019,0-.026a.51.51,0,0,0-.036-.129,1.41,1.41,0,0,0-.917-.885c-.277-.069-.306-.165-.306-.51.01-5.612.01-11.4,0-17.691C329.712,1060.3,329.73,1060.287,329.871,1060.251Zm-17.929,21.864c-.933.929-1.9,1.889-2.846,2.847a.682.682,0,0,1-.489.234.71.71,0,0,1-.22-.037.589.589,0,0,1-.382-.416.534.534,0,0,1,.127-.507c.491-.524,1.011-1.038,1.514-1.537.237-.234.473-.469.707-.706.012-.012.026-.02.1-.02h1.639C312.042,1082.02,311.991,1082.067,311.942,1082.116Zm3.207-.127q0,.727,0,1.455c0,.662,0,1.347-.007,2.02a.579.579,0,0,1-.605.631h-.027a.583.583,0,0,1-.567-.665c0-.383,0-.767,0-1.151,0,0,0-.835,0-1,0-.413,0-.841,0-1.263a.239.239,0,0,1,0-.045h.042c.175.006.349.007.524.007.2,0,.4,0,.6-.005h.045Zm5.6,2.2a.588.588,0,0,1,0,.834.61.61,0,0,1-.433.182.6.6,0,0,1-.423-.175c-.841-.832-1.69-1.685-2.511-2.509l-.542-.543h.648l.973,0a.184.184,0,0,1,.146.063q.4.4.8.8C319.852,1083.276,320.309,1083.731,320.75,1084.185Zm9.436-3.867a.832.832,0,0,1-.679.717,2.234,2.234,0,0,1-.351.026H318.105l-18.207,0a.936.936,0,0,1-.928-.431.81.81,0,0,1,.615-1.222c.079-.007.161-.009.237-.009H329.3a1.029,1.029,0,0,1,.323.037A.83.83,0,0,1,330.187,1080.318Zm-1.351-1.809c-.047.005-.128.005-.206.005H300.417c-.079,0-.16,0-.207-.005,0-.048,0-.131.007-.213v-.008l0-.131c0-.084-.006-.169-.006-.254v-3.5c0-4.569,0-9.294-.011-13.941a.422.422,0,0,1,.006-.092.635.635,0,0,1,.114-.006v0q9.26,0,18.521,0h9.959a.392.392,0,0,1,0,.053c0,.092.011.184.019.277.01.134.021.273.021.406q0,8.4,0,16.806c0,.086,0,.17-.007.254l0,.131v.008C328.833,1078.377,328.838,1078.46,328.836,1078.509Zm.686-19.085a3.211,3.211,0,0,1-.459.022H308.216q-4.154,0-8.312,0a.957.957,0,0,1-.9-.373.813.813,0,0,1,.553-1.273,2.265,2.265,0,0,1,.323-.016H329.17a1.108,1.108,0,0,1,.81.272.787.787,0,0,1,.21.588A.822.822,0,0,1,329.522,1059.424Z" transform="translate(0)" fill="#22577a"/>
    <path id="Path_71" data-name="Path 71" d="M338.347,1172.3q-1.307-.005-2.613-.005t-2.59,0a.531.531,0,0,1-.6-.609c.007-.625.006-1.262,0-1.878q0-.369,0-.738t0-.728c0-.609,0-1.238,0-1.856a.614.614,0,0,1,.148-.461.6.6,0,0,1,.446-.152q1.315,0,2.621,0t2.618,0a.583.583,0,0,1,.435.147.6.6,0,0,1,.148.444c-.006,1.909-.005,3.621,0,5.235a.594.594,0,0,1-.148.443.632.632,0,0,1-.46.152Zm-1.367-.894c.33,0,.66,0,.989.007h.017a.388.388,0,0,0,.085-.007.335.335,0,0,0,.007-.083c-.007-1.617,0-3.2.005-4.533,0-.013,0-.024,0-.032h-.028q-1.152,0-2.3,0t-2.3,0h-.03c0,.007,0,.017,0,.028.008,1.694.01,3.187,0,4.565a.439.439,0,0,0,0,.059.4.4,0,0,0,.051,0c.358-.005.7-.006,1.05-.006l1.23,0h1.216Z" transform="translate(-30.283 -95.436)" fill="#22577a"/>
    <path id="Path_73" data-name="Path 73" d="M338.347,1105.2q-1.3-.006-2.591-.006t-2.612.006h0a.623.623,0,0,1-.459-.151.6.6,0,0,1-.145-.451c.008-.616.007-1.244.005-1.85q0-.367,0-.733t0-.734c0-.617,0-1.255,0-1.882a.627.627,0,0,1,.146-.46.593.593,0,0,1,.444-.15c.872,0,1.738.006,2.6.006s1.758,0,2.637-.006a.517.517,0,0,1,.586.585c-.006,2.118-.005,3.732,0,5.234a.592.592,0,0,1-.146.441.633.633,0,0,1-.459.149Zm-4.917-5.524c0,.014,0,.035,0,.065.007.895.008,1.789.009,2.684q0,.734,0,1.467c0,.033,0,.066,0,.1a.3.3,0,0,0,.012.155l.045.08-.033.078q1.17,0,2.338,0l2.232,0-.051-.1.08-.1a.219.219,0,0,0,0-.089c0-.023,0-.045,0-.068q0-.654,0-1.308c0-.963,0-1.959.013-2.939,0-.011,0-.02,0-.027h-.052c-.764,0-1.52,0-2.275,0s-1.512,0-2.268-.006l0-.186v.186Z" transform="translate(-30.282 -36.678)" fill="#22577a"/>
    <path id="Path_75" data-name="Path 75" d="M397.764,1182.2a.383.383,0,0,1-.407-.345.437.437,0,0,1,.5-.6h15.177a.582.582,0,0,1,.456.125.569.569,0,0,1,.082.461.344.344,0,0,1-.365.355h-4.761q-5.266,0-10.531,0l-.063,0C397.823,1182.2,397.794,1182.2,397.764,1182.2Z" transform="translate(-87.04 -108.907)" fill="#22577a"/>
    <path id="Path_76" data-name="Path 76" d="M413.12,1115.042c-1.5-.006-3.007-.007-4.147-.007h-6.854q-2.1,0-4.206.006a.528.528,0,0,1-.411-.138.5.5,0,0,1-.094-.395.346.346,0,0,1,.363-.356h.078l.131,0h3.714q5.683,0,11.366.005a.481.481,0,0,0,.066-.008.828.828,0,0,1,.138-.014.35.35,0,0,1,.36.337.519.519,0,0,1-.084.423.529.529,0,0,1-.414.146Z" transform="translate(-87.095 -50.117)" fill="#22577a"/>
    <path id="Path_77" data-name="Path 77" d="M397.89,1128.6a.428.428,0,0,1-.5-.475.485.485,0,0,1,.117-.355.522.522,0,0,1,.4-.117q2.138,0,4.265,0,2.181,0,4.362,0h0c.157,0,.513,0,.514.475a.487.487,0,0,1-.118.356.52.52,0,0,1-.389.117c-.756,0-1.5,0-2.245,0h-4.212q-1.087,0-2.174,0Z" transform="translate(-87.082 -61.957)" fill="#22577a"/>
    <path id="Path_78" data-name="Path 78" d="M406.568,1195.579q-1.112-.006-2.223-.005h-4.213q-1.111,0-2.222,0h-.018a.5.5,0,0,1-.38-.115.515.515,0,0,1,.4-.832q2.121,0,4.239,0,2.211,0,4.421,0a.418.418,0,0,1,.481.476.416.416,0,0,1-.478.473Z" transform="translate(-87.097 -120.625)" fill="#22577a"/>
  </g>
</svg>
