<svg xmlns="http://www.w3.org/2000/svg" width="34.357" height="27.337" viewBox="0 0 34.357 27.337">
  <g id="parent_icon" transform="translate(-681.18 -746.89)">
    <path id="Path_79" data-name="Path 79" d="M745.353,881.527s1.645-.575,2.049-1.623,2.988-.3,4.013.285a5.965,5.965,0,0,1,1.8,1.924v5.172h-7.859Z" transform="translate(-55.014 -113.58)" fill="#38a3a5"/>
    <path id="Path_80" data-name="Path 80" d="M868.412,888.343s1.449-.506,1.8-1.429,2.63-.26,3.533.251a5.247,5.247,0,0,1,1.582,1.694v4.553h-6.918Z" transform="translate(-160.508 -119.643)" fill="#38a3a5"/>
    <path id="Path_81" data-name="Path 81" d="M868.412,771.235v6.683s3.258,1.511,4.769.873,1.444-.94,1.444-.94a9.658,9.658,0,0,0-.772-3.526,11.283,11.283,0,0,0-2.183-2.25Z" transform="translate(-160.508 -20.87)" fill="#38a3a5"/>
    <g id="Group_15" data-name="Group 15" transform="translate(681.18 746.89)">
      <path id="Path_82" data-name="Path 82" d="M698.233,749.224h0a8.734,8.734,0,0,0-1.385-1.918,7.121,7.121,0,0,0-2.189-.411,7.292,7.292,0,0,0-7.261,5.378,9.211,9.211,0,0,0-.176,3.12.713.713,0,0,1-.17.5,2.282,2.282,0,0,0,.989,3.9.53.53,0,0,1,.311.28,6.773,6.773,0,0,0,1.038,1.938,8.823,8.823,0,0,0,1.122.071c.1,0,.21,0,.313-.006a5.054,5.054,0,0,1-1.669-3.189,21.263,21.263,0,0,1-.016-2.546,19.606,19.606,0,0,0,8.073-2,8.166,8.166,0,0,0,1.71,1.407,8.906,8.906,0,0,0,.335-2.408A8.71,8.71,0,0,0,698.233,749.224Zm-10.18,9.417a1.037,1.037,0,0,1-.722-.925,1.19,1.19,0,0,1,.722-1.222Z" transform="translate(-685.57 -746.89)" fill="#38a3a5"/>
      <path id="Path_83" data-name="Path 83" d="M822.913,784.183c.272.055.545.106.816.165a3.628,3.628,0,0,1,2.877,3.5c.016,1.157.007,2.314,0,3.471,0,.438-.186.625-.622.625q-7.289,0-14.577,0c-.417,0-.632-.164-.635-.538-.009-1.254-.059-2.513.025-3.761a3.579,3.579,0,0,1,3.162-3.361,1.683,1.683,0,0,0,.5-.153c-.265-.026-.53-.059-.8-.077a2.238,2.238,0,0,1-2.156-2.245c.033-2.666.046-5.336.205-8a6.945,6.945,0,0,1,6.107-6.213,7.019,7.019,0,0,1,7.8,5.746,5.437,5.437,0,0,1,.1.906q.084,3.634.15,7.269a2.28,2.28,0,0,1-2.305,2.546c-.217.021-.435.048-.652.072Zm-1.319-.972.97-.085c.315-.028.631-.054.946-.084a1.28,1.28,0,0,0,1.345-1.5q-.067-3.616-.151-7.232a5.754,5.754,0,0,0-.14-1.047,6.008,6.008,0,0,0-11.841.668c-.1,1.089-.077,2.189-.1,3.285q-.054,2.228-.1,4.456a1.172,1.172,0,0,0,.873,1.279c.794.147,1.607.19,2.423.278.061-.436.05-.716-.347-.973a5.383,5.383,0,0,1-2.244-3.053,12.269,12.269,0,0,1-.213-3.737.6.6,0,0,1,.344-.41,6.113,6.113,0,0,0,2.253-1.639c.316-.345.464-.363.894-.154.448.218.9.44,1.359.622a16.926,16.926,0,0,0,5.844,1.135c.537.013.7.177.7.705,0,.633.018,1.267,0,1.9a5.558,5.558,0,0,1-2.461,4.614A.783.783,0,0,0,821.594,783.21Zm3.994,7.69c0-.992,0-1.952,0-2.912,0-.109,0-.22-.01-.328a2.6,2.6,0,0,0-2-2.292c-.64-.145-1.292-.236-1.93-.386-.257-.06-.351.014-.469.231a2.807,2.807,0,0,1-3.129,1.4,2.871,2.871,0,0,1-2.005-1.69c-.806.164-1.614.28-2.394.5a2.253,2.253,0,0,0-1.767,1.936,33.678,33.678,0,0,0-.029,3.545Zm-2.244-14.841a1.206,1.206,0,0,0-.172-.033,17.4,17.4,0,0,1-6.761-1.65.456.456,0,0,0-.365.085q-.923.648-1.823,1.327a.51.51,0,0,0-.2.329,16.8,16.8,0,0,0,.013,1.789,4.675,4.675,0,0,0,7.35,3.487C823.25,780.085,823.556,778.169,823.344,776.059Zm-6.465,6.93c0,.357-.014.67,0,.981a1.808,1.808,0,0,0,2.245,1.639,2.02,2.02,0,0,0,1.341-2.6A5.956,5.956,0,0,1,816.88,782.989Z" transform="translate(-792.258 -764.607)" fill="#22577a"/>
      <path id="Path_84" data-name="Path 84" d="M698.866,769.733a3.994,3.994,0,0,0-3.2-3.919c-.819-.178-1.644-.328-2.5-.5,0-.465.011-.892-.006-1.316a.521.521,0,0,1,.277-.527,6.178,6.178,0,0,0,2.6-3.326.514.514,0,0,1,.408-.387,2.246,2.246,0,0,0,.962-3.82.678.678,0,0,1-.207-.572,16.009,16.009,0,0,0-.1-2.686,7.187,7.187,0,0,0-6.835-5.789,7.292,7.292,0,0,0-7.261,5.378,9.212,9.212,0,0,0-.176,3.12.713.713,0,0,1-.17.5,2.282,2.282,0,0,0,.989,3.9.53.53,0,0,1,.311.28A6.774,6.774,0,0,0,685,762.008a6.574,6.574,0,0,0,1.683,1.526.418.418,0,0,1,.191.266c.019.5.009,1,.009,1.521-.756.146-1.494.3-2.234.43a4.038,4.038,0,0,0-3.465,4.112q-.006,1.826,0,3.654c0,.54.164.709.687.709q8.168,0,16.334,0c.487,0,.664-.176.665-.656C698.87,772.29,698.879,771.011,698.866,769.733ZM696.4,756.476a1.178,1.178,0,0,1,.707,1.088,1.227,1.227,0,0,1-.707,1.145Zm-12.737,2.165a1.037,1.037,0,0,1-.722-.925,1.19,1.19,0,0,1,.722-1.222Zm.227-3.316a6.245,6.245,0,0,1,9.951-6.1h0a6.2,6.2,0,0,1,2.289,6.145,2.953,2.953,0,0,1-.664-.274c-.23-.17-.461-.34-.691-.511-.421-.315-.835-.64-1.223-.991-.54-.484-.525-.517-1.186-.181A18.817,18.817,0,0,1,683.89,755.325Zm2.543,6.748a5.054,5.054,0,0,1-1.668-3.189,21.276,21.276,0,0,1-.016-2.546,19.606,19.606,0,0,0,8.073-2,8.167,8.167,0,0,0,1.71,1.407,7.538,7.538,0,0,0,.691.381.259.259,0,0,1,.13.187,12.413,12.413,0,0,1-.213,3.337,5.362,5.362,0,0,1-5.4,3.807A5.613,5.613,0,0,1,686.434,762.074Zm5.741,2.035a11.785,11.785,0,0,1-.105,1.55,2.076,2.076,0,0,1-2.275,1.619,2.123,2.123,0,0,1-1.884-2c-.014-.373,0-.745,0-1.155A6.5,6.5,0,0,0,692.174,764.109Zm5.669,9.076H682.229c0-1.292-.078-2.572.023-3.839a2.816,2.816,0,0,1,2.3-2.521c.828-.19,1.667-.333,2.523-.5.056.1.109.19.16.283a3.029,3.029,0,0,0,2.782,1.7,2.982,2.982,0,0,0,2.782-1.686.373.373,0,0,1,.5-.231c.746.168,1.507.278,2.252.454a2.949,2.949,0,0,1,2.288,2.855C697.855,770.849,697.844,772,697.844,773.185Z" transform="translate(-681.18 -746.89)" fill="#22577a"/>
      <path id="Path_85" data-name="Path 85" d="M708.914,919.95c-.279,0-.558.01-.837,0a.507.507,0,0,1,0-1.013c.582-.012,1.164-.014,1.746,0a.466.466,0,0,1,.5.506.471.471,0,0,1-.5.507C709.521,919.962,709.217,919.95,708.914,919.95Z" transform="translate(-703.807 -894.369)" fill="#38a3a5"/>
    </g>
  </g>
</svg>
