<svg xmlns="http://www.w3.org/2000/svg" width="24" height="24" viewBox="0 0 24 24">
  <g id="password" transform="translate(-2094 494)">
    <g id="Group_6" data-name="Group 6" transform="translate(1221.22 -1320.507)">
      <path id="Path_25" data-name="Path 25" d="M878.021,850.506a3.679,3.679,0,0,1-3.724-3.286,2.667,2.667,0,0,1-.014-.369s0-5.613,0-7.74a3.666,3.666,0,0,1,3.286-3.72,4.51,4.51,0,0,1,.57-.031c.149,0,.714.015.715.015a.295.295,0,0,0,.343-.347l-.008-.831c-.01-.8-.02-1.6.015-2.4a5.349,5.349,0,0,1,3.116-4.751,6.163,6.163,0,0,1,1.815-.541h1.3a6.322,6.322,0,0,1,1.862.572,5.468,5.468,0,0,1,3.015,4.146,5.77,5.77,0,0,1,.045.937v.249c0,.865.007,1.729,0,2.6a.386.386,0,0,0,.084.282.39.39,0,0,0,.287.087l.731-.008a4.059,4.059,0,0,1,.961.093,3.677,3.677,0,0,1,2.854,3.6q.006,1.749,0,3.5a.851.851,0,0,1-.7.854.961.961,0,0,1-.149.011.87.87,0,0,1-.833-.6,1.021,1.021,0,0,1-.034-.325l0-3.252a2.017,2.017,0,0,0-2.11-2.148l-7.031,0-6.287,0a1.968,1.968,0,0,0-2.04,1.483,2.589,2.589,0,0,0-.081.681q0,3.683,0,7.367a1.976,1.976,0,0,0,1.466,2.074,2.428,2.428,0,0,0,.681.085H891.4a1.984,1.984,0,0,0,2.068-1.473,2.891,2.891,0,0,0,.076-.475.889.889,0,0,1,.888-.882.856.856,0,0,1,.843.843,3.686,3.686,0,0,1-3.1,3.667,4.169,4.169,0,0,1-.62.043h-13.53Zm6.491-22.27a3.81,3.81,0,0,0-3.6,3.871c0,.962.007,1.921-.005,2.879a.328.328,0,0,0,.387.39c.59-.005,2.613-.005,2.613-.005h2.616c.582,0,1.746.005,1.746.005a.313.313,0,0,0,.373-.367c-.006-.534-.005-1.069-.005-1.6l0-1.3a4.806,4.806,0,0,0-.066-.766,3.851,3.851,0,0,0-3.811-3.11C884.678,828.228,884.595,828.231,884.512,828.236Z" fill="#212121"/>
      <path id="Path_26" data-name="Path 26" d="M880.449,842.765a.96.96,0,1,1-.94-.975A.948.948,0,0,1,880.449,842.765Z" fill="#212121"/>
      <path id="Path_27" data-name="Path 27" d="M879.481,843.61a.845.845,0,0,1-.606-.252.876.876,0,0,1-.246-.634.843.843,0,0,1,.869-.834.86.86,0,0,1-.012,1.72Z" fill="#212121"/>
      <path id="Path_28" data-name="Path 28" d="M883.991,842.769a.96.96,0,1,1-.935-.979A.947.947,0,0,1,883.991,842.769Z" fill="#212121"/>
      <path id="Path_29" data-name="Path 29" d="M883.02,843.61a.847.847,0,0,1-.605-.253.884.884,0,0,1-.243-.636.842.842,0,0,1,.868-.83.86.86,0,0,1-.013,1.719Z" fill="#212121"/>
      <path id="Path_30" data-name="Path 30" d="M886.59,841.79a.96.96,0,1,1-.976.938A.948.948,0,0,1,886.59,841.79Z" fill="#212121"/>
      <path id="Path_31" data-name="Path 31" d="M886.548,843.61a.879.879,0,1,1,.015,0Z" fill="#212121"/>
      <path id="Path_32" data-name="Path 32" d="M890.178,841.79a.96.96,0,1,1-.974.941A.948.948,0,0,1,890.178,841.79Z" fill="#212121"/>
      <path id="Path_33" data-name="Path 33" d="M890.139,843.61a.877.877,0,1,1,.015,0Z" fill="#212121"/>
    </g>
    <rect id="Rectangle_21" data-name="Rectangle 21" width="24" height="24" transform="translate(2094 -494)" fill="none"/>
  </g>
</svg>
