<svg xmlns="http://www.w3.org/2000/svg" width="26.237" height="30" viewBox="0 0 26.237 30">
  <g id="result_icon" transform="translate(-285.837 -773.588)">
    <rect id="Rectangle_26" data-name="Rectangle 26" width="13.491" height="11.494" transform="translate(297.448 776.671)" fill="#38a3a5"/>
    <rect id="Rectangle_27" data-name="Rectangle 27" width="13.99" height="4.547" transform="translate(289.382 795.766)" fill="#38a3a5"/>
    <g id="Group_17" data-name="Group 17" transform="translate(285.837 773.588)">
      <path id="Path_86" data-name="Path 86" d="M306.572,773.588a.838.838,0,0,1,.4.841c-.02.37,0,.741,0,1.162h.32c.781,0,1.562,0,2.343,0A2.347,2.347,0,0,1,312.065,778q.018,4.027,0,8.055a2.343,2.343,0,0,1-2.432,2.412c-.3,0-.606.012-.908,0a.252.252,0,0,0-.3.228,5.185,5.185,0,0,1-.172.528.6.6,0,0,1-1.029.322l-.255-.186v.405q0,6.458,0,12.917c0,.1,0,.2,0,.293a.591.591,0,0,1-.64.613c-.576.006-1.152,0-1.728,0H286.67c-.654,0-.827-.176-.827-.839q0-14.161-.005-28.323a.859.859,0,0,1,.4-.837Zm-.8,14.882h-6.933a2.352,2.352,0,0,1-2.526-2.522q0-3.91,0-7.821a2.364,2.364,0,0,1,2.545-2.536h6.91v-.815H287.034V802.4h18.743Zm1.579-.305c.044-.123.073-.2.1-.287.163-.48.3-.579.811-.58.449,0,.9,0,1.347,0a1.183,1.183,0,0,0,1.28-1.278q.006-3.982,0-7.964a1.192,1.192,0,0,0-1.3-1.293q-5.4,0-10.8,0a1.19,1.19,0,0,0-1.3,1.311q0,3.953,0,7.905a1.188,1.188,0,0,0,1.321,1.319c2.352,0,4.7-.005,7.056.01a1.324,1.324,0,0,1,.64.216A10.338,10.338,0,0,1,307.356,788.165Z" transform="translate(-285.837 -773.588)" fill="#22577a"/>
      <path id="Path_87" data-name="Path 87" d="M315.993,951.339h-6.941c-.621,0-.805-.184-.805-.8q0-2.284,0-4.569c0-.544.2-.748.737-.748q7.029,0,14.058,0c.535,0,.734.21.734.753q0,2.285,0,4.569c0,.61-.189.8-.812.8Zm6.6-4.925H309.437v3.731H322.6Z" transform="translate(-305.442 -923.75)" fill="#22577a"/>
      <path id="Path_88" data-name="Path 88" d="M315.985,924.826h6.939a1.738,1.738,0,0,1,.321.01.578.578,0,0,1,.138,1.1,1.169,1.169,0,0,1-.4.06q-7,0-13.995,0a1.166,1.166,0,0,1-.317-.034.578.578,0,0,1,.111-1.132c.1-.009.2,0,.293,0Z" transform="translate(-305.449 -905.905)" fill="#22577a"/>
      <path id="Path_89" data-name="Path 89" d="M315.96,904.095h-6.88a2.783,2.783,0,0,1-.322-.008.576.576,0,0,1-.145-1.106,1.241,1.241,0,0,1,.4-.056q6.982,0,13.965,0a1.214,1.214,0,0,1,.374.049.557.557,0,0,1,.372.624.564.564,0,0,1-.5.49,3.038,3.038,0,0,1-.322.006Z" transform="translate(-305.45 -886.744)" fill="#22577a"/>
      <path id="Path_90" data-name="Path 90" d="M311.427,845.538c-.829,0-1.659,0-2.488,0-.418,0-.668-.213-.678-.563a.6.6,0,0,1,.673-.606q2.474-.006,4.947,0a.6.6,0,0,1,.68.6c-.007.345-.266.567-.675.568C313.066,845.54,312.247,845.538,311.427,845.538Z" transform="translate(-305.456 -835.512)" fill="#22577a"/>
      <path id="Path_91" data-name="Path 91" d="M311.4,815.724c.82,0,1.639,0,2.459,0,.433,0,.7.216.705.57s-.263.6-.706.6q-2.445,0-4.889,0c-.445,0-.713-.234-.7-.6s.264-.567.7-.568Q310.184,815.721,311.4,815.724Z" transform="translate(-305.459 -810.452)" fill="#22577a"/>
      <path id="Path_92" data-name="Path 92" d="M311.362,874.262c-.829,0-1.659.015-2.487-.011a.861.861,0,0,1-.556-.24.553.553,0,0,1,.323-.891,1.6,1.6,0,0,1,.349-.028q2.356,0,4.712,0a1.9,1.9,0,0,1,.292.017.571.571,0,0,1,.5.585.552.552,0,0,1-.531.557c-.438.02-.878.01-1.316.012S311.791,874.262,311.362,874.262Z" transform="translate(-305.392 -860.643)" fill="#22577a"/>
      <path id="Path_93" data-name="Path 93" d="M412.747,831.772a.586.586,0,0,1-.392.6.567.567,0,0,1-.671-.218.4.4,0,0,1-.077-.156c-.076-.53-.406-.649-.885-.588a4.866,4.866,0,0,1-.818,0,.252.252,0,0,0-.3.2,2.886,2.886,0,0,1-.137.354.587.587,0,1,1-1.091-.416c.24-.637.49-1.271.737-1.906s.5-1.288.753-1.931a.7.7,0,0,1,.685-.534.716.716,0,0,1,.662.529c.482,1.264.971,2.525,1.455,3.788C412.706,831.6,412.728,831.705,412.747,831.772Zm-2.211-2.544-.381.989h.76Z" transform="translate(-393.001 -820.479)" fill="#fff"/>
      <path id="Path_94" data-name="Path 94" d="M436.311,812.325c.559.031.793.208.8.589s-.218.552-.791.612c-.118.628-.286.831-.665.8-.352-.024-.511-.248-.551-.721a4.766,4.766,0,0,1-.7-.357.515.515,0,0,1-.112-.373c0-.358.242-.52.715-.553a4.723,4.723,0,0,1,.349-.7.518.518,0,0,1,.372-.115C436.085,811.515,436.227,811.721,436.311,812.325Z" transform="translate(-415.721 -806.772)" fill="#fff"/>
    </g>
  </g>
</svg>
