<svg xmlns="http://www.w3.org/2000/svg" width="30.72" height="30.824" viewBox="0 0 30.72 30.824">
  <g id="science_icon" transform="translate(-397.117 -156.644)">
    <path id="Path_192" data-name="Path 192" d="M427.836,186.651a.584.584,0,0,0-.472-.59,1.756,1.756,0,0,0-.4-.034q-1.665.006-3.328.017h-.324a3.468,3.468,0,0,0-3.7-2.755c-.932.005-1.864-.017-2.794.026a.7.7,0,0,1-.813-.508,13.311,13.311,0,0,0-.6-1.2c.211,0,.358.008.5,0a1.534,1.534,0,0,1,.99.254,2.536,2.536,0,0,0,3.669-1.207,1.354,1.354,0,0,1,.367-.483,9.4,9.4,0,0,0,3.518-8.852,9.507,9.507,0,0,0-7.868-8.117c-.5-.088-1.012-.12-1.552-.182.245-.388.484-.754.71-1.127a.641.641,0,0,0-.21-.95c-.159-.11-.324-.213-.492-.324.326-.512.636-1,.942-1.483a.68.68,0,0,0-.25-1.1q-.936-.6-1.878-1.2c-.5-.319-.8-.252-1.122.256-.31.482-.618.965-.936,1.464l-.339-.212c-.575-.363-.846-.3-1.212.27l-2.309,3.624q-1.812,2.844-3.622,5.688c-.373.586-.31.853.285,1.229.1.066.2.136.315.209-.33.519-.646,1.011-.957,1.506a.663.663,0,0,0,.232,1.058q.951.609,1.906,1.212a.686.686,0,0,0,1.125-.248c.31-.482.618-.966.935-1.462.117.07.217.125.313.186.607.386.874.329,1.256-.272q1.181-1.851,2.357-3.7a.288.288,0,0,1,.37-.165,2.246,2.246,0,0,0,1.991-.4,1.272,1.272,0,0,1,1.09-.284c.144.024.291.032.434.062a5.764,5.764,0,0,1,2.629,10.126.648.648,0,0,1-.389.14,2.7,2.7,0,0,0-1.553.514.792.792,0,0,1-.423.133c-2.521.021-5.043.031-7.565.047a.63.63,0,0,0-.71.69c0,.089-.016.177-.027.3-.15-.049-.268-.084-.383-.125q-2.834-1.013-5.666-2.024c-.449-.16-.813-.022-.938.342s.061.7.509.861q2.86,1.024,5.723,2.046c.255.092.589.13.732.314.13.168.051.5.064.758a.635.635,0,0,0,.7.676c.258.005.515,0,.825,0-.257.522-.5.993-.72,1.475a.348.348,0,0,1-.377.236q-1.665,0-3.328.015a3.317,3.317,0,0,0-2.819,1.437,10.371,10.371,0,0,0-.686,1.355l-.266,0q-1.648.008-3.3.018a1.94,1.94,0,0,0-.374.028.625.625,0,0,0-.51.6.618.618,0,0,0,.469.626,1.707,1.707,0,0,0,.435.037q14.457-.075,28.913-.155a1.665,1.665,0,0,0,.494-.058A.572.572,0,0,0,427.836,186.651Zm-13.19-27.793-.687,1.078-1.08-.687.689-1.076Zm-9.329,12.27.685-1.08,1.078.686-.685,1.08Zm.294-2.848,5.5-8.637,3.237,2.06c-.165.261-.3.507-.472.728a.35.35,0,0,1-.288.055,2.572,2.572,0,0,0-2.45,4.263c-.755,1.185-1.51,2.373-2.287,3.594Zm7.408-2.024a1.273,1.273,0,1,1-.034-2.545,1.273,1.273,0,1,1,.034,2.545Zm2.52-.774q0-.537-.006-1.08a8.143,8.143,0,0,1,6.929,4.645,8.292,8.292,0,0,1-1.821,9.67l-.809-1.089A7.071,7.071,0,0,0,415.539,165.482Zm2.678,12.914a1.282,1.282,0,0,1-.013,2.564,1.282,1.282,0,1,1,.013-2.564Zm-3.388,4.91-4.735.025a10.258,10.258,0,0,0,.52-1.079.834.834,0,0,1,.992-.634c.7.053,1.4.013,2.1,0a.354.354,0,0,1,.388.226C414.32,182.321,414.568,182.79,414.829,183.306Zm-5.568-2.954c0-.418,0-.821-.007-1.249l6.414-.034c0,.424.005.827.007,1.249Zm-6.254,5.783a2.055,2.055,0,0,1,1.734-1.458c.156-.015.313-.019.47-.02q7.262-.04,14.525-.083a2.193,2.193,0,0,1,2.072,1.1c.062.1.1.221.168.363Z" fill="#fff"/>
    <path id="Path_193" data-name="Path 193" d="M413.053,175.857a1.918,1.918,0,1,0-1.915-1.9A1.9,1.9,0,0,0,413.053,175.857Zm0-2.545a.62.62,0,0,1,.629.635.632.632,0,0,1-.633.637.651.651,0,0,1-.635-.642A.633.633,0,0,1,413.052,173.312Z" fill="#fff"/>
  </g>
</svg>
