<svg id="Layer_1" enable-background="new 0 0 512 512" height="512" viewBox="0 0 512 512" width="512" xmlns="http://www.w3.org/2000/svg" xmlns:xlink="http://www.w3.org/1999/xlink"><linearGradient id="SVGID_1_" gradientUnits="userSpaceOnUse" x1="256" x2="256" y1="0" y2="512"><stop offset="0" stop-color="#01f1fe"/><stop offset="1" stop-color="#4fadfe"/></linearGradient><path d="m256 193.594c-34.411 0-62.406 27.995-62.406 62.406s27.995 62.407 62.406 62.407 62.406-27.996 62.406-62.407-27.995-62.406-62.406-62.406zm0 100.813c-21.178 0-38.406-17.229-38.406-38.407 0-21.177 17.229-38.406 38.406-38.406s38.406 17.229 38.406 38.406c0 21.178-17.228 38.407-38.406 38.407zm143.713-71.742-30.153-3.063c-2-6.248-4.517-12.317-7.528-18.156l19.161-23.494c3.892-4.772 3.54-11.716-.814-16.07l-30.26-30.259c-4.354-4.354-11.298-4.706-16.069-.814l-23.489 19.156c-5.841-3.012-11.91-5.529-18.161-7.53l-3.063-30.146c-.622-6.126-5.78-10.787-11.938-10.787h-42.795c-6.158 0-11.316 4.661-11.938 10.787l-3.063 30.146c-6.251 2.001-12.322 4.518-18.163 7.53l-23.487-19.156c-4.772-3.892-11.717-3.54-16.069.814l-30.26 30.26c-4.354 4.354-4.706 11.297-.814 16.069l19.155 23.488c-3.013 5.842-5.529 11.913-7.53 18.163l-30.146 3.063c-6.126.622-10.787 5.781-10.787 11.938v42.794c0 6.158 4.661 11.316 10.787 11.938l30.152 3.063c2.001 6.248 4.518 12.316 7.528 18.156l-19.16 23.494c-3.892 4.772-3.54 11.715.814 16.069l30.26 30.26c4.354 4.355 11.299 4.707 16.069.814l23.488-19.156c5.841 3.012 11.911 5.529 18.162 7.531l3.063 30.146c.622 6.126 5.78 10.787 11.938 10.787h42.794c6.158 0 11.316-4.661 11.938-10.787l3.063-30.153c6.248-2.001 12.315-4.517 18.156-7.528l23.494 19.16c4.772 3.893 11.716 3.54 16.069-.814l30.26-30.26c4.354-4.354 4.706-11.298.814-16.07l-19.157-23.488c3.013-5.841 5.529-11.911 7.531-18.162l30.146-3.063c6.126-.622 10.787-5.781 10.787-11.938v-42.794c.002-6.158-4.659-11.316-10.785-11.938zm-13.213 43.89-27.483 2.792c-5.065.515-9.254 4.169-10.451 9.118-2.312 9.56-6.091 18.675-11.233 27.092-2.655 4.346-2.277 9.894.94 13.84l17.468 21.417-14.926 14.926-21.423-17.471c-3.945-3.217-9.49-3.596-13.839-.942-8.42 5.143-17.534 8.921-27.087 11.231-4.949 1.196-8.604 5.386-9.119 10.451l-2.793 27.49h-21.108l-2.792-27.483c-.515-5.065-4.169-9.254-9.118-10.451-9.561-2.312-18.676-6.091-27.093-11.233-4.346-2.655-9.895-2.278-13.84.941l-21.417 17.467-14.926-14.926 17.471-21.422c3.218-3.946 3.596-9.493.941-13.838-5.142-8.42-8.921-17.535-11.231-27.089-1.197-4.949-5.386-8.603-10.451-9.118l-27.489-2.792v-21.108l27.483-2.792c5.065-.515 9.255-4.17 10.451-9.119 2.311-9.558 6.089-18.673 11.232-27.094 2.654-4.345 2.276-9.893-.941-13.839l-17.466-21.417 14.926-14.926 21.416 17.466c3.946 3.219 9.494 3.597 13.839.941 8.418-5.141 17.533-8.92 27.095-11.232 4.949-1.197 8.604-5.386 9.118-10.451l2.792-27.483h21.109l2.792 27.483c.515 5.065 4.169 9.254 9.118 10.451 9.56 2.312 18.675 6.091 27.092 11.233 4.345 2.654 9.892 2.278 13.84-.941l21.418-17.467 14.926 14.926-17.472 21.422c-3.218 3.946-3.596 9.494-.941 13.839 5.143 8.42 8.922 17.534 11.231 27.088 1.196 4.949 5.386 8.604 10.451 9.119l27.49 2.792zm-130.5-266.555c-141.159 0-256 114.841-256 256s114.841 256 256 256 256-114.841 256-256-114.841-256-256-256zm0 488c-127.925 0-232-104.075-232-232s104.075-232 232-232 232 104.075 232 232-104.075 232-232 232z" fill="url(#SVGID_1_)"/></svg>