<svg xmlns="http://www.w3.org/2000/svg" width="29.526" height="29.474" viewBox="0 0 29.526 29.474">
  <g id="setting_icon" transform="translate(-287.143 -377.721)">
    <path id="Path_95" data-name="Path 95" d="M287.147,455.1c.009,0,.024-.005.026-.011a1.633,1.633,0,0,1,1.861-1.1.557.557,0,0,0,.621-.4c.038-.108.086-.213.133-.318a.546.546,0,0,0-.139-.677,5.3,5.3,0,0,1-.4-.416,1.419,1.419,0,0,1,0-1.872,21.337,21.337,0,0,1,1.561-1.569,1.419,1.419,0,0,1,1.918.01,2.158,2.158,0,0,1,.168.157c.519.545.55.531,1.35.158a.466.466,0,0,0,.265-.445c0-.192,0-.384.007-.575a1.438,1.438,0,0,1,1.4-1.4c.7-.023,1.4-.023,2.1,0a1.425,1.425,0,0,1,1.39,1.378c0,.076.007.153.008.23.006.71.182.92.887,1.068a.5.5,0,0,0,.47-.151c.168-.157.325-.327.505-.469a1.4,1.4,0,0,1,1.826.028c.553.5,1.083,1.033,1.586,1.585a1.406,1.406,0,0,1,.011,1.849,6.124,6.124,0,0,1-.434.46.53.53,0,0,0-.125.631c.048.115.1.228.144.345a.569.569,0,0,0,.595.4,2.853,2.853,0,0,1,.856.064,1.413,1.413,0,0,1,1.033,1.31c.021.709.025,1.419,0,2.128a1.439,1.439,0,0,1-1.377,1.4c-.076.005-.153.005-.23.005-.714,0-.916.171-1.07.881a.524.524,0,0,0,.168.493c.151.161.315.31.452.482a1.4,1.4,0,0,1,.01,1.782,13.742,13.742,0,0,1-1.688,1.684,1.417,1.417,0,0,1-1.76-.023c-.171-.138-.326-.3-.483-.451a.522.522,0,0,0-.629-.127c-.061.028-.124.05-.186.076-.513.215-.557.284-.563.834a2.839,2.839,0,0,1-.043.6,1.426,1.426,0,0,1-1.358,1.126c-.7.022-1.4.025-2.1,0a1.451,1.451,0,0,1-1.4-1.382c-.005-.067-.005-.134-.006-.2-.005-.756-.032-.786-.742-1.056a.542.542,0,0,0-.631.122c-.143.142-.283.288-.438.416a1.418,1.418,0,0,1-1.894-.006c-.533-.481-1.045-.99-1.528-1.521a1.43,1.43,0,0,1-.015-1.94,1.87,1.87,0,0,1,.155-.17c.567-.541.519-.555.182-1.321a.477.477,0,0,0-.456-.295c-.144,0-.288,0-.432,0a1.482,1.482,0,0,1-1.5-1.033.782.782,0,0,0-.07-.117Z" transform="translate(-0.004 -59.075)" fill="#22577a"/>
    <path id="Path_96" data-name="Path 96" d="M337.29,377.721c.112.046.228.085.336.138a1.488,1.488,0,0,1,.865,1.413c.007.46.009.921,0,1.381a.534.534,0,0,0,.388.569,11.178,11.178,0,0,1,1.193.5.547.547,0,0,0,.7-.135q.471-.486.956-.956a1.469,1.469,0,0,1,2.2-.012q1,.974,1.975,1.971a1.473,1.473,0,0,1-.016,2.219q-.473.483-.956.956a.535.535,0,0,0-.129.676,12.371,12.371,0,0,1,.506,1.22.519.519,0,0,0,.55.371c.441-.008.882,0,1.323,0a1.5,1.5,0,0,1,1.62,1.611q0,1.338,0,2.676a1.489,1.489,0,0,1-1.587,1.613c-.451.008-.9.006-1.352,0a.535.535,0,0,0-.565.394,10.682,10.682,0,0,1-.5,1.193.538.538,0,0,0,.122.678c.327.324.655.648.976.977a1.467,1.467,0,0,1,0,2.2q-.977,1-1.973,1.973a1.464,1.464,0,0,1-2.176.011c-.511-.492-1.009-1-1.507-1.5a.509.509,0,0,1-.06-.762c.211-.2.5-.179.761.079.478.471.95.949,1.427,1.421.348.344.578.341.929-.008q.928-.923,1.852-1.851c.338-.339.339-.572.008-.909-.316-.321-.641-.634-.954-.958a1.453,1.453,0,0,1-.315-1.717c.175-.4.342-.811.508-1.22a1.437,1.437,0,0,1,1.389-.976c.46-.012.921,0,1.381-.005.486-.006.65-.175.651-.667q0-1.309,0-2.618c0-.465-.179-.642-.645-.647-.451,0-.9,0-1.352,0a1.441,1.441,0,0,1-1.422-.969c-.172-.416-.341-.833-.517-1.247a1.442,1.442,0,0,1,.319-1.691c.32-.331.652-.65.974-.979a.521.521,0,0,0,0-.867q-.952-.961-1.912-1.912a.521.521,0,0,0-.867,0c-.316.308-.623.624-.938.934a1.466,1.466,0,0,1-1.786.338c-.387-.166-.777-.326-1.167-.484a1.455,1.455,0,0,1-1-1.462c-.005-.441,0-.882,0-1.323,0-.466-.182-.643-.647-.645q-1.323,0-2.647,0c-.454,0-.63.171-.638.622s0,.882,0,1.323a1.475,1.475,0,0,1-1.057,1.508c-.383.15-.762.312-1.14.474a1.448,1.448,0,0,1-1.717-.313c-.331-.32-.65-.652-.979-.974a.521.521,0,0,0-.866,0q-.95.942-1.892,1.891c-.329.331-.326.571.009.91q.7.706,1.4,1.4a.568.568,0,0,1,.222.5.472.472,0,0,1-.312.383.5.5,0,0,1-.551-.143q-.6-.6-1.2-1.2c-.162-.163-.329-.324-.473-.5a1.4,1.4,0,0,1,.012-1.826,31.83,31.83,0,0,1,2.3-2.3,1.418,1.418,0,0,1,1.959.092c.343.321.666.663,1,.993a.546.546,0,0,0,.77.139c.379-.161.758-.322,1.142-.471a.548.548,0,0,0,.392-.568c-.006-.441,0-.882,0-1.323a1.5,1.5,0,0,1,1.046-1.549.357.357,0,0,0,.085-.066Z" transform="translate(-32.132)" fill="#22577a"/>
    <path id="Path_97" data-name="Path 97" d="M379.258,432.9a6.083,6.083,0,0,1-1.764,3.885c-.261.277-.556.318-.777.107s-.206-.488.054-.761a5.4,5.4,0,0,0-7.479-7.782,2.528,2.528,0,0,1-.284.242.48.48,0,0,1-.648-.079.474.474,0,0,1,.029-.653,5.444,5.444,0,0,1,1.048-.849,6.372,6.372,0,0,1,9.07,2.345A6.756,6.756,0,0,1,379.258,432.9Z" transform="translate(-69.482 -41.393)" fill="#22577a"/>
    <path id="Path_98" data-name="Path 98" d="M296.728,459.043a1.586,1.586,0,0,0-.418-1.127c-.117-.127-.246-.243-.361-.371a.491.491,0,0,1-.017-.722q.665-.7,1.362-1.363a.477.477,0,0,1,.721,0c.13.113.243.245.371.361a1.457,1.457,0,0,0,1.572.321,5.811,5.811,0,0,0,.557-.232,1.449,1.449,0,0,0,.869-1.348c.027-1.006.032-1.013,1.025-1.013.451,0,.9,0,1.352,0,.391.006.553.175.565.567,0,.125,0,.249,0,.374a1.513,1.513,0,0,0,.971,1.463c.123.053.248.1.372.154a1.483,1.483,0,0,0,1.737-.358c.616-.608.714-.606,1.321,0,.325.325.653.648.976.977a.533.533,0,0,1,0,.89,2.017,2.017,0,0,0-.7,1.125,1.917,1.917,0,0,0,1.812,2.171c.8.009.869.074.869.871,0,.5,0,1,0,1.5a.51.51,0,0,1-.565.574c-.144.006-.288,0-.431,0-.124.007-.247.027-.37.044-.985.136-1.875,2.11-.876,2.985.022.019.041.041.061.061.585.594.584.7-.016,1.3-.319.319-.635.64-.957.955-.349.343-.591.346-.932,0a1.653,1.653,0,0,0-1.222-.673c-1.037.046-2.143.612-2.062,1.932.038.626-.127.762-.749.762-.518,0-1.036,0-1.553,0-.448,0-.625-.184-.633-.631,0-.153.005-.307,0-.46a1.415,1.415,0,0,0-.777-1.229,4.4,4.4,0,0,0-.714-.3,1.4,1.4,0,0,0-1.531.378c-.667.7-.855.58-1.429-.027-.3-.314-.611-.609-.913-.917a.541.541,0,0,1,0-.893c.1-.1.206-.2.3-.308a1.438,1.438,0,0,0,.308-1.523,5.681,5.681,0,0,0-.244-.583,1.437,1.437,0,0,0-1.349-.865c-.992-.025-1.017-.048-1.017-1.028,0-.4,0-.805,0-1.208,0-.552.152-.705.695-.708a3.131,3.131,0,0,0,.63-.043,1.329,1.329,0,0,0,.746-.4A2.807,2.807,0,0,0,296.728,459.043Z" transform="translate(-5.894 -65.02)" fill="#38a3a5"/>
    <path id="Path_99" data-name="Path 99" d="M333.9,489.027a4.267,4.267,0,0,1-4.407,4.4,4.407,4.407,0,1,1,4.407-4.4Z" transform="translate(-32.527 -91.654)" fill="#22577a"/>
    <path id="Path_100" data-name="Path 100" d="M338.8,494.893a3.431,3.431,0,1,1-3.441-3.426A3.426,3.426,0,0,1,338.8,494.893Z" transform="translate(-38.406 -97.533)" fill="#fefefe"/>
  </g>
</svg>
