<svg xmlns="http://www.w3.org/2000/svg" width="31.123" height="31.125" viewBox="0 0 31.123 31.125">
  <g id="timetable_iocn" transform="translate(-357.08 -331.72)">
    <path id="Path_280" data-name="Path 280" d="M393.489,456.7a.51.51,0,0,1-.479.514c-.182.013-.367,0-.55,0s-.367.01-.55,0a.508.508,0,0,1-.492-.532.5.5,0,0,1,.495-.5c.367-.013.733-.016,1.1,0A.5.5,0,0,1,393.489,456.7Z" transform="translate(-30.196 -109.446)" fill="#040505"/>
    <path id="Path_281" data-name="Path 281" d="M419.311,394.055a.462.462,0,0,1-.6.036,5.038,5.038,0,0,1-.911-.91.43.43,0,0,1,0-.516.444.444,0,0,1,.609-.222,3.308,3.308,0,0,1,1.04,1.033A.438.438,0,0,1,419.311,394.055Z" transform="translate(-53.322 -53.36)" fill="#040505"/>
    <path id="Path_282" data-name="Path 282" d="M419.512,514.4c.01.331-.929,1.28-1.258,1.266a.521.521,0,0,1-.444-.279.441.441,0,0,1,.04-.543c.267-.294.549-.578.842-.846a.473.473,0,0,1,.547-.043A.49.49,0,0,1,419.512,514.4Z" transform="translate(-53.338 -160.19)" fill="#040505"/>
    <path id="Path_283" data-name="Path 283" d="M482.571,367.624a.509.509,0,0,1-.51.515.5.5,0,0,1-.52-.5c-.012-.356-.013-.712,0-1.068a.5.5,0,0,1,.524-.5.513.513,0,0,1,.507.487.579.579,0,0,1,0,.064v.486C482.572,367.279,482.579,367.452,482.571,367.624Z" transform="translate(-109.438 -30.206)" fill="#040505"/>
    <path id="Path_284" data-name="Path 284" d="M482.563,539.413a.509.509,0,0,1-.518.475.5.5,0,0,1-.509-.48c-.016-.367-.014-.733,0-1.1a.5.5,0,0,1,.5-.49.507.507,0,0,1,.53.5c.011.182,0,.366,0,.549S482.578,539.231,482.563,539.413Z" transform="translate(-109.433 -181.235)" fill="#040505"/>
    <path id="Path_285" data-name="Path 285" d="M461.181,414.113a2.467,2.467,0,0,1-.244.259q-1.667,1.676-3.337,3.348a.347.347,0,0,0-.1.46,2.064,2.064,0,1,1-3.8-.011.362.362,0,0,0-.1-.49c-.66-.637-1.308-1.286-1.96-1.93a.518.518,0,0,1-.113-.673.488.488,0,0,1,.553-.24.716.716,0,0,1,.37.245c.642.639,1.288,1.275,1.925,1.919a.3.3,0,0,0,.411.081,1.863,1.863,0,0,1,1.65.007.322.322,0,0,0,.439-.089c1.117-1.14,2.244-2.272,3.368-3.406a2.182,2.182,0,0,1,.21-.2.506.506,0,0,1,.7.043A.5.5,0,0,1,461.181,414.113Z" transform="translate(-82.979 -71.715)" fill="#040505"/>
    <path id="Path_286" data-name="Path 286" d="M540.931,393.146a4.807,4.807,0,0,1-.931.934.622.622,0,0,1-.218.07.524.524,0,0,1-.478-.265.479.479,0,0,1,.047-.573,10.761,10.761,0,0,1,.823-.819.456.456,0,0,1,.645.019A.449.449,0,0,1,540.931,393.146Z" transform="translate(-160.177 -53.331)" fill="#040505"/>
    <path id="Path_287" data-name="Path 287" d="M540.971,515.054a.572.572,0,0,1-.3.492.449.449,0,0,1-.542-.059,10.571,10.571,0,0,1-.82-.823.471.471,0,0,1,.013-.65.456.456,0,0,1,.638-.107,4.769,4.769,0,0,1,.935.929A.625.625,0,0,1,540.971,515.054Z" transform="translate(-160.135 -160.133)" fill="#040505"/>
    <path id="Path_288" data-name="Path 288" d="M565.219,456.723a.5.5,0,0,1-.475.515c-.365.017-.733.016-1.1,0a.514.514,0,0,1,0-1.028c.193-.012.388,0,.583,0,.173,0,.345-.011.518,0A.508.508,0,0,1,565.219,456.723Z" transform="translate(-181.21 -109.468)" fill="#040505"/>
    <path id="Path_289" data-name="Path 289" d="M372.6,331.72a15.563,15.563,0,1,0,15.6,15.611A15.527,15.527,0,0,0,372.6,331.72Zm-.016,30.041a14.5,14.5,0,1,1,14.529-14.5A14.523,14.523,0,0,1,372.589,361.76Z" transform="translate(0 0)" fill="#124668"/>
    <path id="Path_290" data-name="Path 290" d="M393.489,456.7a.51.51,0,0,1-.479.514c-.182.013-.367,0-.55,0s-.367.01-.55,0a.508.508,0,0,1-.492-.532.5.5,0,0,1,.495-.5c.367-.013.733-.016,1.1,0A.5.5,0,0,1,393.489,456.7Z" transform="translate(-30.196 -109.446)" fill="#f89e1b"/>
    <path id="Path_291" data-name="Path 291" d="M419.311,394.055a.462.462,0,0,1-.6.036,5.038,5.038,0,0,1-.911-.91.43.43,0,0,1,0-.516.444.444,0,0,1,.609-.222,3.308,3.308,0,0,1,1.04,1.033A.438.438,0,0,1,419.311,394.055Z" transform="translate(-53.322 -53.36)" fill="#f89e1b"/>
    <path id="Path_292" data-name="Path 292" d="M419.512,514.4c.01.331-.929,1.28-1.258,1.266a.521.521,0,0,1-.444-.279.441.441,0,0,1,.04-.543c.267-.294.549-.578.842-.846a.473.473,0,0,1,.547-.043A.49.49,0,0,1,419.512,514.4Z" transform="translate(-53.338 -160.19)" fill="#f89e1b"/>
    <path id="Path_293" data-name="Path 293" d="M482.571,367.624a.509.509,0,0,1-.51.515.5.5,0,0,1-.52-.5c-.012-.356-.013-.712,0-1.068a.5.5,0,0,1,.524-.5.513.513,0,0,1,.507.487.579.579,0,0,1,0,.064v.486C482.572,367.279,482.579,367.452,482.571,367.624Z" transform="translate(-109.438 -30.206)" fill="#f89e1b"/>
    <path id="Path_294" data-name="Path 294" d="M482.563,539.413a.509.509,0,0,1-.518.475.5.5,0,0,1-.509-.48c-.016-.367-.014-.733,0-1.1a.5.5,0,0,1,.5-.49.507.507,0,0,1,.53.5c.011.182,0,.366,0,.549S482.578,539.231,482.563,539.413Z" transform="translate(-109.433 -181.235)" fill="#f89e1b"/>
    <path id="Path_295" data-name="Path 295" d="M461.181,414.113a2.467,2.467,0,0,1-.244.259q-1.667,1.676-3.337,3.348a.347.347,0,0,0-.1.46,2.064,2.064,0,1,1-3.8-.011.362.362,0,0,0-.1-.49c-.66-.637-1.308-1.286-1.96-1.93a.518.518,0,0,1-.113-.673.488.488,0,0,1,.553-.24.716.716,0,0,1,.37.245c.642.639,1.288,1.275,1.925,1.919a.3.3,0,0,0,.411.081,1.863,1.863,0,0,1,1.65.007.322.322,0,0,0,.439-.089c1.117-1.14,2.244-2.272,3.368-3.406a2.182,2.182,0,0,1,.21-.2.506.506,0,0,1,.7.043A.5.5,0,0,1,461.181,414.113Z" transform="translate(-82.979 -71.715)" fill="#f89e1b"/>
    <path id="Path_296" data-name="Path 296" d="M540.931,393.146a4.807,4.807,0,0,1-.931.934.622.622,0,0,1-.218.07.524.524,0,0,1-.478-.265.479.479,0,0,1,.047-.573,10.761,10.761,0,0,1,.823-.819.456.456,0,0,1,.645.019A.449.449,0,0,1,540.931,393.146Z" transform="translate(-160.177 -53.331)" fill="#f89e1b"/>
    <path id="Path_297" data-name="Path 297" d="M540.971,515.054a.572.572,0,0,1-.3.492.449.449,0,0,1-.542-.059,10.571,10.571,0,0,1-.82-.823.471.471,0,0,1,.013-.65.456.456,0,0,1,.638-.107,4.769,4.769,0,0,1,.935.929A.625.625,0,0,1,540.971,515.054Z" transform="translate(-160.135 -160.133)" fill="#f89e1b"/>
    <path id="Path_298" data-name="Path 298" d="M565.219,456.723a.5.5,0,0,1-.475.515c-.365.017-.733.016-1.1,0a.514.514,0,0,1,0-1.028c.193-.012.388,0,.583,0,.173,0,.345-.011.518,0A.508.508,0,0,1,565.219,456.723Z" transform="translate(-181.21 -109.468)" fill="#f89e1b"/>
    <path id="Path_299" data-name="Path 299" d="M380.172,340.31a14.5,14.5,0,1,0,14.491,14.5A14.522,14.522,0,0,0,380.172,340.31Zm-.031,27.969a13.467,13.467,0,1,1,13.486-13.447A13.479,13.479,0,0,1,380.141,368.279Z" transform="translate(-7.545 -7.554)" fill="#2e9495"/>
    <path id="Path_300" data-name="Path 300" d="M393.489,456.7a.51.51,0,0,1-.479.514c-.182.013-.367,0-.55,0s-.367.01-.55,0a.508.508,0,0,1-.492-.532.5.5,0,0,1,.495-.5c.367-.013.733-.016,1.1,0A.5.5,0,0,1,393.489,456.7Z" transform="translate(-30.196 -109.446)" fill="#040505"/>
    <path id="Path_301" data-name="Path 301" d="M419.311,394.055a.462.462,0,0,1-.6.036,5.038,5.038,0,0,1-.911-.91.43.43,0,0,1,0-.516.444.444,0,0,1,.609-.222,3.308,3.308,0,0,1,1.04,1.033A.438.438,0,0,1,419.311,394.055Z" transform="translate(-53.322 -53.36)" fill="#040505"/>
    <path id="Path_302" data-name="Path 302" d="M419.512,514.4c.01.331-.929,1.28-1.258,1.266a.521.521,0,0,1-.444-.279.441.441,0,0,1,.04-.543c.267-.294.549-.578.842-.846a.473.473,0,0,1,.547-.043A.49.49,0,0,1,419.512,514.4Z" transform="translate(-53.338 -160.19)" fill="#040505"/>
    <path id="Path_303" data-name="Path 303" d="M482.571,367.624a.509.509,0,0,1-.51.515.5.5,0,0,1-.52-.5c-.012-.356-.013-.712,0-1.068a.5.5,0,0,1,.524-.5.513.513,0,0,1,.507.487.579.579,0,0,1,0,.064v.486C482.572,367.279,482.579,367.452,482.571,367.624Z" transform="translate(-109.438 -30.206)" fill="#040505"/>
    <path id="Path_304" data-name="Path 304" d="M482.563,539.413a.509.509,0,0,1-.518.475.5.5,0,0,1-.509-.48c-.016-.367-.014-.733,0-1.1a.5.5,0,0,1,.5-.49.507.507,0,0,1,.53.5c.011.182,0,.366,0,.549S482.578,539.231,482.563,539.413Z" transform="translate(-109.433 -181.235)" fill="#040505"/>
    <path id="Path_305" data-name="Path 305" d="M461.181,414.113a2.467,2.467,0,0,1-.244.259q-1.667,1.676-3.337,3.348a.347.347,0,0,0-.1.46,2.064,2.064,0,1,1-3.8-.011.362.362,0,0,0-.1-.49c-.66-.637-1.308-1.286-1.96-1.93a.518.518,0,0,1-.113-.673.488.488,0,0,1,.553-.24.716.716,0,0,1,.37.245c.642.639,1.288,1.275,1.925,1.919a.3.3,0,0,0,.411.081,1.863,1.863,0,0,1,1.65.007.322.322,0,0,0,.439-.089c1.117-1.14,2.244-2.272,3.368-3.406a2.182,2.182,0,0,1,.21-.2.506.506,0,0,1,.7.043A.5.5,0,0,1,461.181,414.113Z" transform="translate(-82.979 -71.715)" fill="#040505"/>
    <path id="Path_306" data-name="Path 306" d="M540.931,393.146a4.807,4.807,0,0,1-.931.934.622.622,0,0,1-.218.07.524.524,0,0,1-.478-.265.479.479,0,0,1,.047-.573,10.761,10.761,0,0,1,.823-.819.456.456,0,0,1,.645.019A.449.449,0,0,1,540.931,393.146Z" transform="translate(-160.177 -53.331)" fill="#040505"/>
    <path id="Path_307" data-name="Path 307" d="M540.971,515.054a.572.572,0,0,1-.3.492.449.449,0,0,1-.542-.059,10.571,10.571,0,0,1-.82-.823.471.471,0,0,1,.013-.65.456.456,0,0,1,.638-.107,4.769,4.769,0,0,1,.935.929A.625.625,0,0,1,540.971,515.054Z" transform="translate(-160.135 -160.133)" fill="#040505"/>
    <path id="Path_308" data-name="Path 308" d="M565.219,456.723a.5.5,0,0,1-.475.515c-.365.017-.733.016-1.1,0a.514.514,0,0,1,0-1.028c.193-.012.388,0,.583,0,.173,0,.345-.011.518,0A.508.508,0,0,1,565.219,456.723Z" transform="translate(-181.21 -109.468)" fill="#040505"/>
    <path id="Path_309" data-name="Path 309" d="M387.768,348.89a13.467,13.467,0,1,0,13.412,13.487A13.476,13.476,0,0,0,387.768,348.89Zm-.071,25.9a12.431,12.431,0,1,1,12.447-12.406A12.458,12.458,0,0,1,387.7,374.788Z" transform="translate(-15.099 -15.098)" fill="#124668"/>
    <path id="Path_310" data-name="Path 310" d="M393.489,456.7a.51.51,0,0,1-.479.514c-.182.013-.367,0-.55,0s-.367.01-.55,0a.508.508,0,0,1-.492-.532.5.5,0,0,1,.495-.5c.367-.013.733-.016,1.1,0A.5.5,0,0,1,393.489,456.7Z" transform="translate(-30.196 -109.446)" fill="#e4eaee"/>
    <path id="Path_311" data-name="Path 311" d="M419.311,394.055a.462.462,0,0,1-.6.036,5.038,5.038,0,0,1-.911-.91.43.43,0,0,1,0-.516.444.444,0,0,1,.609-.222,3.308,3.308,0,0,1,1.04,1.033A.438.438,0,0,1,419.311,394.055Z" transform="translate(-53.322 -53.36)" fill="#e4eaee"/>
    <path id="Path_312" data-name="Path 312" d="M419.512,514.4c.01.331-.929,1.28-1.258,1.266a.521.521,0,0,1-.444-.279.441.441,0,0,1,.04-.543c.267-.294.549-.578.842-.846a.473.473,0,0,1,.547-.043A.49.49,0,0,1,419.512,514.4Z" transform="translate(-53.338 -160.19)" fill="#e4eaee"/>
    <path id="Path_313" data-name="Path 313" d="M482.571,367.624a.509.509,0,0,1-.51.515.5.5,0,0,1-.52-.5c-.012-.356-.013-.712,0-1.068a.5.5,0,0,1,.524-.5.513.513,0,0,1,.507.487.579.579,0,0,1,0,.064v.486C482.572,367.279,482.579,367.452,482.571,367.624Z" transform="translate(-109.438 -30.206)" fill="#e4eaee"/>
    <path id="Path_314" data-name="Path 314" d="M482.563,539.413a.509.509,0,0,1-.518.475.5.5,0,0,1-.509-.48c-.016-.367-.014-.733,0-1.1a.5.5,0,0,1,.5-.49.507.507,0,0,1,.53.5c.011.182,0,.366,0,.549S482.578,539.231,482.563,539.413Z" transform="translate(-109.433 -181.235)" fill="#e4eaee"/>
    <path id="Path_315" data-name="Path 315" d="M461.181,414.113a2.467,2.467,0,0,1-.244.259q-1.667,1.676-3.337,3.348a.347.347,0,0,0-.1.46,2.064,2.064,0,1,1-3.8-.011.362.362,0,0,0-.1-.49c-.66-.637-1.308-1.286-1.96-1.93a.518.518,0,0,1-.113-.673.488.488,0,0,1,.553-.24.716.716,0,0,1,.37.245c.642.639,1.288,1.275,1.925,1.919a.3.3,0,0,0,.411.081,1.863,1.863,0,0,1,1.65.007.322.322,0,0,0,.439-.089c1.117-1.14,2.244-2.272,3.368-3.406a2.182,2.182,0,0,1,.21-.2.506.506,0,0,1,.7.043A.5.5,0,0,1,461.181,414.113Z" transform="translate(-82.979 -71.715)" fill="#e4eaee"/>
    <path id="Path_316" data-name="Path 316" d="M540.931,393.146a4.807,4.807,0,0,1-.931.934.622.622,0,0,1-.218.07.524.524,0,0,1-.478-.265.479.479,0,0,1,.047-.573,10.761,10.761,0,0,1,.823-.819.456.456,0,0,1,.645.019A.449.449,0,0,1,540.931,393.146Z" transform="translate(-160.177 -53.331)" fill="#e4eaee"/>
    <path id="Path_317" data-name="Path 317" d="M540.971,515.054a.572.572,0,0,1-.3.492.449.449,0,0,1-.542-.059,10.571,10.571,0,0,1-.82-.823.471.471,0,0,1,.013-.65.456.456,0,0,1,.638-.107,4.769,4.769,0,0,1,.935.929A.625.625,0,0,1,540.971,515.054Z" transform="translate(-160.135 -160.133)" fill="#e4eaee"/>
    <path id="Path_318" data-name="Path 318" d="M565.219,456.723a.5.5,0,0,1-.475.515c-.365.017-.733.016-1.1,0a.514.514,0,0,1,0-1.028c.193-.012.388,0,.583,0,.173,0,.345-.011.518,0A.508.508,0,0,1,565.219,456.723Z" transform="translate(-181.21 -109.468)" fill="#e4eaee"/>
    <path id="Path_319" data-name="Path 319" d="M461.181,414.113a2.467,2.467,0,0,1-.244.259q-1.667,1.676-3.337,3.348a.347.347,0,0,0-.1.46,2.064,2.064,0,1,1-3.8-.011.362.362,0,0,0-.1-.49c-.66-.637-1.308-1.286-1.96-1.93a.518.518,0,0,1-.113-.673.488.488,0,0,1,.553-.24.716.716,0,0,1,.37.245c.642.639,1.288,1.275,1.925,1.919a.3.3,0,0,0,.411.081,1.863,1.863,0,0,1,1.65.007.322.322,0,0,0,.439-.089c1.117-1.14,2.244-2.272,3.368-3.406a2.182,2.182,0,0,1,.21-.2.506.506,0,0,1,.7.043A.5.5,0,0,1,461.181,414.113Z" transform="translate(-82.979 -71.715)" fill="#2e9495"/>
    <path id="Path_320" data-name="Path 320" d="M482.571,367.624a.509.509,0,0,1-.51.515.5.5,0,0,1-.52-.5c-.012-.356-.013-.712,0-1.068a.5.5,0,0,1,.524-.5.513.513,0,0,1,.507.487.579.579,0,0,1,0,.064v.486C482.572,367.279,482.579,367.452,482.571,367.624Z" transform="translate(-109.438 -30.206)" fill="#124668"/>
    <path id="Path_321" data-name="Path 321" d="M393.489,456.7a.51.51,0,0,1-.479.514c-.182.013-.367,0-.55,0s-.367.01-.55,0a.508.508,0,0,1-.492-.532.5.5,0,0,1,.495-.5c.367-.013.733-.016,1.1,0A.5.5,0,0,1,393.489,456.7Z" transform="translate(-30.196 -109.446)" fill="#124668"/>
    <path id="Path_322" data-name="Path 322" d="M565.219,456.723a.5.5,0,0,1-.475.515c-.365.017-.733.016-1.1,0a.514.514,0,0,1,0-1.028c.193-.012.388,0,.583,0,.173,0,.345-.011.518,0A.508.508,0,0,1,565.219,456.723Z" transform="translate(-181.21 -109.468)" fill="#124668"/>
    <path id="Path_323" data-name="Path 323" d="M482.563,539.413a.509.509,0,0,1-.518.475.5.5,0,0,1-.509-.48c-.016-.367-.014-.733,0-1.1a.5.5,0,0,1,.5-.49.507.507,0,0,1,.53.5c.011.182,0,.366,0,.549S482.578,539.231,482.563,539.413Z" transform="translate(-109.433 -181.235)" fill="#124668"/>
    <path id="Path_324" data-name="Path 324" d="M419.311,394.055a.462.462,0,0,1-.6.036,5.038,5.038,0,0,1-.911-.91.43.43,0,0,1,0-.516.444.444,0,0,1,.609-.222,3.308,3.308,0,0,1,1.04,1.033A.438.438,0,0,1,419.311,394.055Z" transform="translate(-53.322 -53.36)" fill="#124668"/>
    <path id="Path_325" data-name="Path 325" d="M540.931,393.146a4.807,4.807,0,0,1-.931.934.622.622,0,0,1-.218.07.524.524,0,0,1-.478-.265.479.479,0,0,1,.047-.573,10.761,10.761,0,0,1,.823-.819.456.456,0,0,1,.645.019A.449.449,0,0,1,540.931,393.146Z" transform="translate(-160.177 -53.331)" fill="#124668"/>
    <path id="Path_326" data-name="Path 326" d="M419.512,514.4c.01.331-.929,1.28-1.258,1.266a.521.521,0,0,1-.444-.279.441.441,0,0,1,.04-.543c.267-.294.549-.578.842-.846a.473.473,0,0,1,.547-.043A.49.49,0,0,1,419.512,514.4Z" transform="translate(-53.338 -160.19)" fill="#124668"/>
    <path id="Path_327" data-name="Path 327" d="M540.971,515.054a.572.572,0,0,1-.3.492.449.449,0,0,1-.542-.059,10.571,10.571,0,0,1-.82-.823.471.471,0,0,1,.013-.65.456.456,0,0,1,.638-.107,4.769,4.769,0,0,1,.935.929A.625.625,0,0,1,540.971,515.054Z" transform="translate(-160.135 -160.133)" fill="#124668"/>
    <path id="Path_328" data-name="Path 328" d="M479.366,452.976a1.034,1.034,0,1,1-1.044-1.025A1.059,1.059,0,0,1,479.366,452.976Z" transform="translate(-105.715 -105.727)" fill="#124668"/>
  </g>
</svg>
