<svg xmlns="http://www.w3.org/2000/svg" width="24" height="24.001" viewBox="0 0 24 24.001">
  <g id="user_pro_roll_no_icon" transform="translate(220 512)">
    <path id="hastag" d="M23,7H18.191l.8-5.865a1,1,0,0,0-1.982-.27L16.173,7H9.191l.8-5.865A1,1,0,0,0,8.009.865L7.173,7H2A1,1,0,0,0,2,9H6.9l-.818,6H1a1,1,0,0,0,0,2H5.809l-.8,5.865a1,1,0,0,0,1.982.27L7.827,17h6.982l-.8,5.865a1,1,0,0,0,1.982.27L16.827,17H22a1,1,0,0,0,0-2H17.1l.818-6H23a1,1,0,0,0,0-2Zm-7.918,8H8.1l.818-6H15.9Z" transform="translate(-220 -512)" fill="#fff"/>
  </g>
</svg>
