<svg xmlns="http://www.w3.org/2000/svg" width="24" height="24" viewBox="0 0 24 24">
  <g id="user_icon" transform="translate(-842.096 -824.39)">
    <path id="Path_24" data-name="Path 24" d="M864.909,847.714c-.02-.273-.04-.555-.081-.838a10.772,10.772,0,0,0-2.775-5.763,10.628,10.628,0,0,0-4.168-2.806c-.091-.03-.192-.081-.2-.172a.262.262,0,0,1,.111-.232,4.341,4.341,0,0,0,.717-.757,5.557,5.557,0,0,0,.545-6.005.36.36,0,0,1-.04-.283.355.355,0,0,1,.212-.172c.484-.172.969-.353,1.453-.525l.7-.262a.655.655,0,0,1,.232-.061c.172,0,.172.151.172.353v4.986a1.046,1.046,0,0,0,.01.212.986.986,0,0,0,.2.01h1.322a.16.16,0,0,0,.222-.222v-7.105a.273.273,0,0,0-.222-.313c-1.988-.727-3.987-1.463-5.975-2.2l-2.261-.838-.848-.323-.192-.01-2.907,1.08q-3.134,1.15-6.268,2.281c-.182.071-.222.131-.212.293.01.283.01.565,0,.838-.01.172.03.242.2.293.666.242,1.332.484,2,.737.706.252,1.4.5,2.1.757a.376.376,0,0,1,.242.182.392.392,0,0,1-.061.293,5.384,5.384,0,0,0-.6,3.25,5.493,5.493,0,0,0,1.827,3.492c.081.071.162.151.141.252s-.111.141-.212.182a10.864,10.864,0,0,0-7.055,9.931c0,.081.01.111.121.141h1.514c.091,0,.111-.01.121-.131l.01-.192a6.433,6.433,0,0,1,.091-.989,9.1,9.1,0,0,1,5.3-6.923.409.409,0,0,1,.172-.05.35.35,0,0,1,.283.182c.737,1.07,1.484,2.13,2.23,3.189a.866.866,0,0,1,.151.495v4.249a.24.24,0,0,0,.03.151.226.226,0,0,0,.121.02h1.352a.879.879,0,0,0,.2-.01.48.48,0,0,0,.02-.2v-4.2a.681.681,0,0,1,.111-.444c.767-1.09,1.534-2.19,2.3-3.28a.27.27,0,0,1,.242-.151.338.338,0,0,1,.151.04,9.224,9.224,0,0,1,3.987,3.411,9.047,9.047,0,0,1,1.443,4.683c0,.141.03.151.161.151,0,0,.495-.01.737-.01s.454.01.686.01h.02a.19.19,0,0,0,.131-.03c.01-.01.03-.05.02-.151C864.929,848.047,864.919,847.885,864.909,847.714Zm-16.5-19.1-.313-.182,5.8-2.13a.8.8,0,0,1,.232-.04.392.392,0,0,1,.151.02l5.561,2.059.273.161-5.763,2.13a.865.865,0,0,1-.232.05.5.5,0,0,1-.161-.03Zm7.125,11.233c-.424.585-.838,1.181-1.241,1.766a.261.261,0,0,1-.2.141.244.244,0,0,1-.182-.131c-.424-.6-.838-1.2-1.262-1.8a.246.246,0,0,1-.061-.242.276.276,0,0,1,.222-.131l1.363-.1h.02l1.171.1c.081.01.192.03.232.121S855.563,839.8,855.533,839.852Zm2.018-4.431a3.8,3.8,0,0,1-3.008,2.129.975.975,0,0,1-.172.01l-.293-.01h-.01a3.79,3.79,0,0,1-3.8-3.482,3.842,3.842,0,0,1,.575-2.4.3.3,0,0,1,.272-.182.453.453,0,0,1,.172.04l2.654.969a.481.481,0,0,0,.2.04.514.514,0,0,0,.2-.04c.394-.151.8-.293,1.191-.444.454-.161.908-.323,1.352-.495a.468.468,0,0,1,.192-.04.363.363,0,0,1,.3.212A3.79,3.79,0,0,1,857.551,835.421Z" transform="translate(0)" fill="#212121"/>
    <rect id="Rectangle_20" data-name="Rectangle 20" width="24" height="24" transform="translate(842.096 824.39)" fill="none"/>
  </g>
</svg>
