<svg viewBox="0 0 512 512" xmlns="http://www.w3.org/2000/svg" xmlns:xlink="http://www.w3.org/1999/xlink"><linearGradient id="a" gradientTransform="matrix(1 0 0 -1 0 -9462)" gradientUnits="userSpaceOnUse" x1="0" x2="512" y1="-9718" y2="-9718"><stop offset="0" stop-color="#00f1ff"/><stop offset=".231" stop-color="#00d8ff"/><stop offset=".5138" stop-color="#00c0ff"/><stop offset=".7773" stop-color="#00b2ff"/><stop offset="1" stop-color="#00adff"/></linearGradient><path d="m512 256c0 141.386719-114.613281 256-256 256s-256-114.613281-256-256 114.613281-256 256-256 256 114.613281 256 256zm0 0" fill="url(#a)"/><g fill="#fff"><path d="m256 456c-110.28125 0-200-89.71875-200-200s89.71875-200 200-200 200 89.71875 200 200c0 39.476562-11.71875 77.871094-33.886719 111.027344-4.601562 6.886718-13.917969 8.738281-20.804687 4.132812-6.886719-4.601562-8.738282-13.917968-4.132813-20.804687 18.855469-28.207031 28.824219-60.835938 28.824219-94.355469 0-93.738281-76.261719-170-170-170s-170 76.261719-170 170 76.261719 170 170 170c31.09375 0 61.503906-8.464844 87.941406-24.480469 7.085938-4.292969 16.308594-2.03125 20.601563 5.054688 4.292969 7.085937 2.027343 16.3125-5.058594 20.601562-31.128906 18.855469-66.910156 28.824219-103.484375 28.824219zm0 0"/><path d="m193.917969 333.082031c-3.839844 0-7.679688-1.464843-10.605469-4.394531-5.859375-5.859375-5.859375-15.355469 0-21.210938l57.6875-57.691406v-119.207031c0-8.285156 6.714844-15 15-15s15 6.714844 15 15v125.421875c0 3.976562-1.582031 7.792969-4.394531 10.605469l-62.082031 62.082031c-2.925782 2.929688-6.765626 4.394531-10.605469 4.394531zm0 0"/></g></svg>