<svg xmlns="http://www.w3.org/2000/svg" width="24" height="24" viewBox="0 0 24 24">
  <g id="wieght_icon" transform="translate(-6915 -3733)">
    <rect id="Rectangle_17458" data-name="Rectangle 17458" width="24" height="24" transform="translate(6915 3733)" fill="none"/>
    <g id="Group_7352" data-name="Group 7352" transform="translate(6632.485 3140.62)">
      <path id="Path_3499" data-name="Path 3499" d="M303.448,606.614c0-.149-.007-.3-.008-.447,0-.462,0-.933.006-1.388.01-.925.02-1.881-.038-2.825a5.138,5.138,0,0,0-3.443-4.486,6.423,6.423,0,0,0-2.136-.287h-.185a3.418,3.418,0,0,0-3.145-4.8,3.419,3.419,0,0,0-3.116,4.805h-.171c-.134,0-.266,0-.4,0h-.069a5.183,5.183,0,0,0-5.166,5.2c-.009,1.687,0,3.4,0,5.059v.236a1.738,1.738,0,0,0,1.874,1.864h1.324c.042.454.09.911.137,1.355.025.242.051.485.075.727q.043.424.088.849c.076.73.155,1.486.217,2.229a1.789,1.789,0,0,0,1.283,1.664l.048.016h2.2l.048-.016a1.7,1.7,0,0,0,1.271-1.707c0-.426,0-2.386,0-2.386.121.006.243.009.364.009s.243,0,.365-.009c0,.21,0,.419,0,.629.005.513.011,1.044-.011,1.562a1.784,1.784,0,0,0,1.28,1.9l.047.016h2.2l.049-.018a1.947,1.947,0,0,0,.9-.607,2.214,2.214,0,0,0,.4-1.232l.085-.846c.136-1.356.277-2.758.408-4.138.235,0,.476,0,.715,0s.468,0,.7,0a1.7,1.7,0,0,0,1.754-1.557A9.91,9.91,0,0,0,303.448,606.614Zm-14.655-4.722a6.034,6.034,0,0,0-.118,1.169v1.068q0,1.132,0,2.264a5.736,5.736,0,0,0,.1,1.1c-.168,0-.341,0-.526,0s-.4,0-.637,0c0-.579,0-1.165,0-1.732,0-1.165-.009-2.37.014-3.553a3.139,3.139,0,0,1,2.406-2.921A5.707,5.707,0,0,0,288.792,601.892Zm5.717-7.465a1.344,1.344,0,0,1,1.378,1.363,1.388,1.388,0,0,1-.4,1,1.382,1.382,0,0,1-2.354-.972,1.346,1.346,0,0,1,1.376-1.386m-2.4,19.932c-.115,0-.238,0-.372,0s-.287,0-.433,0c-.09-.931-.185-1.875-.277-2.79-.017-.16-.032-.32-.049-.48a5.48,5.48,0,0,0,1.091.654.293.293,0,0,1,.04.021.189.189,0,0,1,0,.023C292.1,612.638,292.1,613.5,292.108,614.359Zm5.862-2.536q-.043.431-.088.861c-.057.549-.116,1.116-.166,1.675-.129,0-.262,0-.4,0-.126,0-.258,0-.4,0,0-.708,0-1.426,0-2.121v-.475a5.688,5.688,0,0,0,1.127-.674C298.017,611.336,297.995,611.579,297.97,611.822Zm.329-7.234c0,.248,0,.479,0,.7,0,.457,0,.851,0,1.252a3.8,3.8,0,0,1-3.232,3.661,4.157,4.157,0,0,1-.554.038,3.771,3.771,0,0,1-3.794-3.818c0-1.222,0-2.326,0-3.376a3.783,3.783,0,0,1,3.813-3.82c.1,0,.207,0,.311.012a3.786,3.786,0,0,1,3.418,3.261,9.313,9.313,0,0,1,.038,1.325C298.293,604.092,298.289,604.349,298.3,604.588Zm2.515,2.9c-.193,0-.39,0-.573.005a6.83,6.83,0,0,0,.105-1.346q0-.787,0-1.573,0-.719,0-1.439a5.852,5.852,0,0,0-1.353-3.84,2.639,2.639,0,0,1,.712.268,3.065,3.065,0,0,1,1.694,2.818c.01.955.009,1.928.007,2.869,0,.737,0,1.5,0,2.249C301.226,607.494,301.032,607.491,300.814,607.491Z" fill="#fff"/>
    </g>
  </g>
</svg>
